<?xml version="1.0" encoding="UTF-8"?>
<svg id="ac4efed3-479d-4629-94aa-2ad5ea7e3c6a" width="752" height="823" data-name="Layer 1" version="1.1" viewBox="0 0 752 823" xmlns="http://www.w3.org/2000/svg" xmlns:cc="http://creativecommons.org/ns#" xmlns:dc="http://purl.org/dc/elements/1.1/" xmlns:rdf="http://www.w3.org/1999/02/22-rdf-syntax-ns#">
 <metadata>
  <rdf:RDF>
   <cc:Work rdf:about="">
    <dc:format>image/svg+xml</dc:format>
    <dc:type rdf:resource="http://purl.org/dc/dcmitype/StillImage"/>
    <dc:title/>
   </cc:Work>
  </rdf:RDF>
 </metadata>
 <circle cx="378.59" cy="370" r="314.43" fill="#141414" stroke-width=".83624"/>
 <g fill="#222" stroke-width=".83624">
  <path d="m412.37 743.8 33.522-121.87s90.477-85.753 85.201-154.34c-0.17459-2.2697 0-2.4443 0-2.4443l-1.1606-17.216a5.6263 5.6263 0 0 0-9.9086-3.2558l-17.913 21.17-6.4498 8.6794s-15.898 19.255-45.229 10.526l-9.428-1.3967s-23.57 11.348-55.346-6.8091c0 0 11.174 13.269-16.062-13.967-27.236-27.236-63.901-69.837-63.901-69.837-5.6937-6.091-1.7047-23.09 6.6177-23.596 18.888-1.1493 40.42-6.2047 46.475-12.968a24.966 24.966 0 0 0 5.1148-8.9484 25.3 25.3 0 0 0-21.384-32.992c-21.954-2.3063-57.664-4.0874-67.876-0.16485a30.842 30.842 0 0 0-2.8394 1.2735 40.946 40.946 0 0 0-22.075 33.303c-2.8707 35.094-6.643 112.04 10.681 153.04l21.542 50.982-66.694 189.26z"/>
  <path d="m502.02 392.21a25.028 25.028 0 0 0-2.5732 0.13271 24.695 24.695 0 0 0-18.406 11.366l-27.485 43.191a20.46 20.46 0 0 0 14.968 31.325l0.53817 0.0588a20.42 20.42 0 0 0 17.341-6.7675l33.925-38.166a24.529 24.529 0 0 0-0.33564-33.25q-0.24622-0.26215-0.49325-0.5153a24.296 24.296 0 0 0-17.48-7.3743z"/>
  <path d="m461.6 346.44a25.727 25.727 0 0 0-21.751 11.99l-40.528 64.311a25.375 25.375 0 0 0-2.0955 23.225 25.112 25.112 0 0 0 17.381 15.177c0.27112 0.0662 0.54551 0.13231 0.82399 0.196a25.42 25.42 0 0 0 26.157-9.879c11.792-16.144 33.166-46.067 43.824-65.082a25.228 25.228 0 0 0-2.0906-28.15 51.521 51.521 0 0 0-4.0407-4.5214 25.029 25.029 0 0 0-17.681-7.2673z"/>
  <path d="m410.97 309.93a27.513 27.513 0 0 0-26.12 19.596c-7.8169 26.072-24.257 53.638-33.362 67.748a20.678 20.678 0 0 0-2.7072 16.023 19.533 19.533 0 0 0 9.2991 12.471q0.48508 0.27931 0.97997 0.53572c12.359 6.4246 27.876 1.9101 35.328-10.279l39.5-64.614a27.313 27.313 0 0 0 2.0171-24.715 26.356 26.356 0 0 0-17.943-15.831q-0.79745-0.2058-1.5974-0.37402a26.172 26.172 0 0 0-5.3948-0.56184z"/>
  <path d="m321.79 302.49c3.5994 0.35198 7.6642 0.59983 11.95 0.86075 15.256 0.92934 32.405 1.9742 37.455 8.4527l0.99794-2.5773a25.99 25.99 0 0 0-3.229-23.358 25.09 25.09 0 0 0-19.94-11.017c-0.52224-0.0184-1.0428-0.0237-1.5606-0.0188-13.244 0.14006-24.388 10.764-25.372 24.186-0.082 1.1196-0.18086 2.2629-0.30049 3.4724z"/>
  <path d="m352.81 374.58a1.5545 1.5545 0 0 0-0.82603 0.24663c-11.679 7.2285-30.823 8.7728-41.196 9.0497a2.2989 2.2989 0 0 0-2.049 1.3785 2.1915 2.1915 0 0 0 0.33646 2.3646c4.5136 5.2674 15.068 11.489 24.917 12.785 8.2175 1.0657 16.204-14.348 20.233-23.643a1.5124 1.5124 0 0 0-0.40424-1.795 1.5645 1.5645 0 0 0-1.0118-0.38709z"/>
 </g>
</svg>
