<?xml version="1.0" encoding="UTF-8"?>
<svg id="ac4efed3-479d-4629-94aa-2ad5ea7e3c6a" width="752" height="823" data-name="Layer 1" version="1.1" viewBox="0 0 752 823" xmlns="http://www.w3.org/2000/svg" xmlns:cc="http://creativecommons.org/ns#" xmlns:dc="http://purl.org/dc/elements/1.1/" xmlns:rdf="http://www.w3.org/1999/02/22-rdf-syntax-ns#">
 <metadata>
  <rdf:RDF>
   <cc:Work rdf:about="">
    <dc:format>image/svg+xml</dc:format>
    <dc:type rdf:resource="http://purl.org/dc/dcmitype/StillImage"/>
    <dc:title/>
   </cc:Work>
  </rdf:RDF>
 </metadata>
 <circle cx="374.13" cy="370.47" r="283.15" fill="#592989" stroke-width=".75305"/>
 <g fill="#2f2e41" stroke-width=".75305">
  <path d="m404.55 707.08 30.187-109.74s81.475-77.221 76.724-138.98c-0.15722-2.0439 0-2.2011 0-2.2011l-1.0452-15.503a5.0665 5.0665 0 0 0-8.9227-2.9319l-16.131 19.064-5.8081 7.8159s-14.316 17.34-40.729 9.4785l-8.49-1.2578s-21.225 10.219-49.839-6.1316c0 0 10.062 11.949-14.464-12.578-24.527-24.527-57.543-62.889-57.543-62.889-5.1272-5.485-1.5351-20.793 5.9593-21.249 17.009-1.035 36.399-5.5874 41.852-11.678a22.482 22.482 0 0 0 4.6059-8.0581 22.783 22.783 0 0 0-19.257-29.71c-19.77-2.0768-51.927-3.6807-61.123-0.14844a27.774 27.774 0 0 0-2.5569 1.1468 36.873 36.873 0 0 0-19.878 29.99c-2.5851 31.603-5.982 100.89 9.6179 137.81l19.399 45.91-60.059 170.43z"/>
  <path d="m485.28 390.46a22.538 22.538 0 0 0-2.3172 0.11951 22.238 22.238 0 0 0-16.574 10.235l-24.751 38.894a18.424 18.424 0 0 0 13.479 28.208l0.48463 0.053a18.388 18.388 0 0 0 15.616-6.0942l30.55-34.369a22.088 22.088 0 0 0-0.30225-29.942q-0.22173-0.23607-0.44418-0.46402a21.879 21.879 0 0 0-15.741-6.6407z"/>
  <path d="m448.89 349.25a23.167 23.167 0 0 0-19.587 10.797l-36.496 57.913a22.851 22.851 0 0 0-1.887 20.915 22.613 22.613 0 0 0 15.652 13.667c0.24415 0.0595 0.49123 0.11914 0.74201 0.1765a22.891 22.891 0 0 0 23.555-8.8961c10.619-14.538 29.867-41.484 39.464-58.607a22.718 22.718 0 0 0-1.8826-25.349 46.395 46.395 0 0 0-3.6387-4.0715 22.539 22.539 0 0 0-15.922-6.5443z"/>
  <path d="m403.29 316.37a24.775 24.775 0 0 0-23.521 17.646c-7.0392 23.478-21.844 48.301-30.042 61.008a18.621 18.621 0 0 0-2.4378 14.429 17.59 17.59 0 0 0 8.3739 11.23q0.43683 0.25151 0.8825 0.48241c11.129 5.7854 25.103 1.7201 31.813-9.2564l35.57-58.185a24.595 24.595 0 0 0 1.8164-22.256 23.734 23.734 0 0 0-16.158-14.256q-0.7181-0.18532-1.4384-0.33682a23.568 23.568 0 0 0-4.8581-0.50594z"/>
  <path d="m322.98 309.68c3.2413 0.31697 6.9017 0.54017 10.761 0.77511 13.738 0.83689 29.181 1.7778 33.728 7.6117l0.89865-2.3209a23.404 23.404 0 0 0-2.9078-21.034 22.594 22.594 0 0 0-17.956-9.9213c-0.47029-0.0166-0.9391-0.0213-1.4054-0.0169-11.926 0.12612-21.962 9.6929-22.848 21.78-0.0738 1.0082-0.16286 2.0378-0.2706 3.1269z"/>
  <path d="m350.92 374.59a1.3998 1.3998 0 0 0-0.74385 0.22209c-10.517 6.5093-27.757 7.9-37.097 8.1493a2.0702 2.0702 0 0 0-1.8451 1.2414 1.9734 1.9734 0 0 0 0.30298 2.1293c4.0646 4.7433 13.569 10.346 22.438 11.513 7.3999 0.95969 14.592-12.921 18.22-21.29a1.3619 1.3619 0 0 0-0.36402-1.6164 1.4088 1.4088 0 0 0-0.91116-0.34858z"/>
 </g>
</svg>
