<?xml version="1.0" encoding="UTF-8"?>
<svg id="ac4efed3-479d-4629-94aa-2ad5ea7e3c6a" width="752" height="823" data-name="Layer 1" version="1.1" viewBox="0 0 752 823" xmlns="http://www.w3.org/2000/svg" xmlns:cc="http://creativecommons.org/ns#" xmlns:dc="http://purl.org/dc/elements/1.1/" xmlns:rdf="http://www.w3.org/1999/02/22-rdf-syntax-ns#">
 <metadata>
  <rdf:RDF>
   <cc:Work rdf:about="">
    <dc:format>image/svg+xml</dc:format>
    <dc:type rdf:resource="http://purl.org/dc/dcmitype/StillImage"/>
    <dc:title/>
   </cc:Work>
  </rdf:RDF>
 </metadata>
 <circle cx="380.27" cy="381.83" r="303.72" fill="#e6e6e6" stroke-width=".80778"/>
 <g fill="#d0d0d0" stroke-width=".80778">
  <path d="m412.9 742.91 32.38-117.72s87.396-82.833 82.3-149.08c-0.16865-2.1924 0-2.3611 0-2.3611l-1.1211-16.63a5.4347 5.4347 0 0 0-9.5712-3.145l-17.303 20.449-6.2302 8.3839s-15.357 18.6-43.69 10.167l-9.107-1.3492s-22.767 10.962-53.461-6.5773c0 0 10.793 12.817-15.516-13.492-26.309-26.309-61.725-67.459-61.725-67.459-5.4999-5.8836-1.6466-22.304 6.3924-22.793 18.245-1.1102 39.044-5.9934 44.893-12.527a24.116 24.116 0 0 0 4.9406-8.6437 24.439 24.439 0 0 0-20.656-31.869c-21.207-2.2278-55.701-3.9482-65.565-0.15924a29.792 29.792 0 0 0-2.7428 1.2301 39.552 39.552 0 0 0-21.323 32.169c-2.7729 33.9-6.4168 108.22 10.317 147.83l20.808 49.247-64.424 182.81z"/>
  <path d="m499.5 403.28a24.176 24.176 0 0 0-2.4856 0.12819 23.854 23.854 0 0 0-17.779 10.979l-26.549 41.72a19.763 19.763 0 0 0 14.459 30.258l0.51985 0.0568a19.724 19.724 0 0 0 16.751-6.5371l32.77-36.867a23.694 23.694 0 0 0-0.32422-32.118q-0.23783-0.25322-0.47646-0.49775a23.469 23.469 0 0 0-16.885-7.1233z"/>
  <path d="m460.46 359.07a24.851 24.851 0 0 0-21.01 11.582l-39.148 62.121a24.511 24.511 0 0 0-2.0242 22.435 24.257 24.257 0 0 0 16.79 14.661c0.2619 0.0639 0.52694 0.1278 0.79594 0.18932a24.554 24.554 0 0 0 25.267-9.5426c11.391-15.595 32.037-44.499 42.332-62.866a24.37 24.37 0 0 0-2.0194-27.192 49.767 49.767 0 0 0-3.9032-4.3674 24.177 24.177 0 0 0-17.079-7.0199z"/>
  <path d="m411.55 323.8a26.576 26.576 0 0 0-25.23 18.929c-7.5508 25.184-23.431 51.812-32.226 65.442a19.974 19.974 0 0 0-2.615 15.478 18.868 18.868 0 0 0 8.9826 12.046q0.46857 0.2698 0.94662 0.51748c11.938 6.2058 26.927 1.8451 34.125-9.9292l38.155-62.414a26.383 26.383 0 0 0 1.9484-23.874 25.459 25.459 0 0 0-17.332-15.292q-0.7703-0.1988-1.543-0.36129a25.281 25.281 0 0 0-5.2111-0.54271z"/>
  <path d="m325.41 316.62c3.4768 0.33999 7.4033 0.57941 11.543 0.83144 14.737 0.89771 31.302 1.907 36.179 8.1649l0.96397-2.4896a25.105 25.105 0 0 0-3.1191-22.563 24.236 24.236 0 0 0-19.261-10.642c-0.50447-0.0178-1.0074-0.0229-1.5075-0.0181-12.793 0.13529-23.558 10.397-24.509 23.362-0.0792 1.0815-0.1747 2.1859-0.29026 3.3542z"/>
  <path d="m355.37 386.25a1.5015 1.5015 0 0 0-0.79791 0.23823c-11.281 6.9824-29.774 8.4742-39.793 8.7416a2.2207 2.2207 0 0 0-1.9792 1.3316 2.1169 2.1169 0 0 0 0.325 2.2841c4.3599 5.088 14.555 11.098 24.069 12.35 7.9377 1.0294 15.652-13.86 19.544-22.838a1.4609 1.4609 0 0 0-0.39047-1.7339 1.5112 1.5112 0 0 0-0.97738-0.37391z"/>
 </g>
</svg>
