<?xml version="1.0" encoding="UTF-8"?>
<svg id="ac4efed3-479d-4629-94aa-2ad5ea7e3c6a" width="752" height="823" data-name="Layer 1" version="1.1" viewBox="0 0 752 823" xmlns="http://www.w3.org/2000/svg" xmlns:cc="http://creativecommons.org/ns#" xmlns:dc="http://purl.org/dc/elements/1.1/" xmlns:rdf="http://www.w3.org/1999/02/22-rdf-syntax-ns#">
 <metadata>
  <rdf:RDF>
   <cc:Work rdf:about="">
    <dc:format>image/svg+xml</dc:format>
    <dc:type rdf:resource="http://purl.org/dc/dcmitype/StillImage"/>
    <dc:title/>
   </cc:Work>
  </rdf:RDF>
 </metadata>
 <circle cx="378.83" cy="362.78" r="306.61" fill="#6a31a3" stroke-width=".81546"/>
 <g fill="#d0d0d0" stroke-width=".81546">
  <path d="m411.78 727.29 32.688-118.84s88.228-83.621 83.083-150.5c-0.17026-2.2133 0-2.3835 0-2.3835l-1.1318-16.788a5.4864 5.4864 0 0 0-9.6622-3.1749l-17.468 20.644-6.2895 8.4636s-15.503 18.777-44.105 10.264l-9.1936-1.362s-22.984 11.066-53.97-6.6398c0 0 10.896 12.939-15.663-13.62-26.559-26.559-62.312-68.101-62.312-68.101-5.5522-5.9396-1.6623-22.516 6.4532-23.01 18.419-1.1208 39.416-6.0504 45.32-12.646a24.345 24.345 0 0 0 4.9876-8.7259 24.671 24.671 0 0 0-20.853-32.172c-21.409-2.2489-56.231-3.9858-66.189-0.16075a30.075 30.075 0 0 0-2.7688 1.2418 39.929 39.929 0 0 0-21.526 32.475c-2.7993 34.222-6.4778 109.25 10.415 149.23l21.006 49.715-65.036 184.55z"/>
  <path d="m499.19 384.44a24.406 24.406 0 0 0-2.5093 0.1294 24.081 24.081 0 0 0-17.948 11.083l-26.802 42.117a19.951 19.951 0 0 0 14.596 30.546l0.5248 0.0573a19.912 19.912 0 0 0 16.91-6.5993l33.082-37.217a23.919 23.919 0 0 0-0.3273-32.423q-0.24009-0.25564-0.48099-0.50249a23.692 23.692 0 0 0-17.046-7.191z"/>
  <path d="m459.78 339.8a25.087 25.087 0 0 0-21.21 11.692l-39.52 62.712a24.744 24.744 0 0 0-2.0434 22.648 24.487 24.487 0 0 0 16.949 14.8c0.26439 0.0645 0.53195 0.12901 0.80351 0.19113a24.788 24.788 0 0 0 25.507-9.6334c11.499-15.743 32.342-44.922 42.734-63.464a24.601 24.601 0 0 0-2.0386-27.45 50.24 50.24 0 0 0-3.9403-4.409 24.407 24.407 0 0 0-17.242-7.0867z"/>
  <path d="m410.41 304.2a26.829 26.829 0 0 0-25.47 19.109c-7.6226 25.424-23.654 52.304-32.532 66.064a20.164 20.164 0 0 0-2.6399 15.625 19.048 19.048 0 0 0 9.068 12.161q0.47303 0.27237 0.95562 0.5224c12.052 6.2649 27.183 1.8626 34.45-10.024l38.518-63.008a26.634 26.634 0 0 0 1.967-24.101 25.701 25.701 0 0 0-17.497-15.437q-0.77763-0.20069-1.5576-0.36473a25.521 25.521 0 0 0-5.2607-0.54787z"/>
  <path d="m323.44 296.95c3.5099 0.34323 7.4737 0.58492 11.653 0.83935 14.877 0.90625 31.599 1.9252 36.524 8.2426l0.97313-2.5132a25.344 25.344 0 0 0-3.1488-22.777 24.467 24.467 0 0 0-19.444-10.744c-0.50927-0.0179-1.0169-0.0231-1.5218-0.0183-12.914 0.13657-23.782 10.496-24.742 23.585-0.08 1.0918-0.17636 2.2067-0.29302 3.3861z"/>
  <path d="m353.7 367.25a1.5158 1.5158 0 0 0-0.8055 0.24049c-11.389 7.0488-30.057 8.5548-40.172 8.8247a2.2418 2.2418 0 0 0-1.998 1.3442 2.137 2.137 0 0 0 0.3281 2.3058c4.4014 5.1364 14.693 11.204 24.298 12.468 8.0132 1.0392 15.801-13.992 19.73-23.055a1.4748 1.4748 0 0 0-0.3942-1.7504 1.5256 1.5256 0 0 0-0.98667-0.37747z"/>
 </g>
</svg>
