<?xml version="1.0" standalone="no"?>
<!DOCTYPE svg PUBLIC "-//W3C//DTD SVG 20010904//EN"
 "http://www.w3.org/TR/2001/REC-SVG-20010904/DTD/svg10.dtd">
<svg version="1.0" xmlns="http://www.w3.org/2000/svg"
 width="700.000000pt" height="700.000000pt" viewBox="0 0 700.000000 700.000000"
 preserveAspectRatio="xMidYMid meet">
<metadata>
Created by potrace 1.11, written by Peter Selinger 2001-2013
</metadata>
<g transform="translate(0.000000,700.000000) scale(0.100000,-0.100000)"
fill="#000000" stroke="none">
<path d="M2430 5599 c-215 -20 -407 -84 -510 -169 l-35 -29 60 15 c83 20 253
20 340 0 117 -27 263 -107 353 -191 75 -71 152 -181 152 -217 0 -10 5 -18 10
-18 6 0 10 8 10 18 0 36 77 146 152 217 90 85 216 155 335 186 96 25 270 28
353 5 30 -8 56 -13 58 -11 6 5 -80 61 -143 92 -178 89 -354 114 -785 112 -146
-1 -303 -5 -350 -10z"/>
<path d="M1936 4989 c25 -235 149 -409 292 -409 37 0 86 25 115 59 47 56 33
151 -29 200 -38 30 -42 27 -37 -22 4 -36 1 -48 -21 -74 -15 -17 -39 -34 -55
-38 -97 -21 -164 103 -92 171 l30 28 -57 28 c-31 16 -68 39 -82 51 -14 13 -35
31 -47 41 l-22 19 5 -54z"/>
<path d="M3621 5006 c-19 -20 -63 -50 -97 -68 l-62 -32 29 -34 c39 -44 39 -90
0 -134 -24 -27 -36 -33 -71 -33 -35 0 -47 6 -72 34 -26 30 -30 39 -25 77 2 24
1 44 -4 44 -22 0 -80 -65 -89 -101 -19 -70 7 -126 74 -159 72 -35 138 -22 210
41 78 69 151 249 144 355 l-3 45 -34 -35z"/>
<path d="M3772 4510 c-172 -45 -292 -152 -382 -342 -62 -130 -75 -191 -75
-358 0 -121 4 -158 23 -224 29 -100 85 -209 159 -308 312 -414 677 -685 1231
-909 l147 -60 -77 6 c-80 6 -292 54 -354 80 -20 8 -40 15 -44 15 -5 0 24 -49
64 -108 84 -126 145 -266 183 -419 23 -92 27 -129 27 -253 0 -80 -5 -164 -11
-187 -6 -24 -9 -43 -7 -43 2 0 41 57 88 128 214 322 332 626 398 1027 20 123
17 515 -5 635 -51 280 -132 500 -261 708 -200 323 -460 539 -733 608 -121 30
-263 32 -371 4z"/>
<path d="M2790 4472 c0 -39 -62 -142 -112 -187 l-50 -45 25 -43 c59 -101 137
-330 137 -403 0 -43 10 -22 26 56 20 97 68 229 114 319 l39 74 -48 43 c-46 41
-111 145 -111 177 0 9 -4 19 -10 22 -5 3 -10 -2 -10 -13z"/>
<path d="M1847 3876 c-37 -249 47 -546 236 -838 202 -312 580 -659 969 -890
196 -116 460 -234 583 -262 17 -3 -24 22 -91 57 -390 207 -886 590 -1170 904
-325 360 -484 669 -512 993 -7 84 -8 84 -15 36z"/>
</g>
</svg>
