<?xml version="1.0" encoding="UTF-8"?>
<svg width="240" height="240" enable-background="new 0 0 240 224" version="1.1" viewBox="0 0 240 240" xml:space="preserve" xmlns="http://www.w3.org/2000/svg" xmlns:cc="http://creativecommons.org/ns#" xmlns:dc="http://purl.org/dc/elements/1.1/" xmlns:rdf="http://www.w3.org/1999/02/22-rdf-syntax-ns#"><title>Topic Icon</title><metadata><rdf:RDF><cc:Work rdf:about=""><dc:format>image/svg+xml</dc:format><dc:type rdf:resource="http://purl.org/dc/dcmitype/StillImage"/><dc:title>Topic Icon</dc:title><dc:date/></cc:Work></rdf:RDF></metadata>

<g transform="matrix(1.2149 0 0 1.2149 -25.785 -25.785)"><g transform="matrix(1.3506 0 0 1.3506 -39.666 -46.108)" fill="#222"><g transform="matrix(.86042 0 0 .86042 16.502 24.401)" fill="#222"><circle cx="118.22" cy="114.58" r="84.998"/><path d="m135.95 70.753"/></g></g><g transform="matrix(1.3506 0 0 1.3506 -39.666 -46.108)" fill="#1d1d1d" stroke-width=".86042"><path d="m104.01 68.574c-9.1884 0-16.945-0.0066-23.541 5.4434v0.5c6.5959-5.4499 14.353-5.4434 23.541-5.4434z"/><path d="m80.469 74.018c12.906-4.3021 23.541 6.1102 23.541 11.26v0.5c0-5.1496-10.635-15.562-23.541-11.26z"/><path d="m104.01 85.277c0-5.1496 10.586-15.562 23.492-11.26v0.5c-12.906-4.3021-23.492 6.1102-23.492 11.26z"/><path d="m127.5 74.018c-6.596-5.4499-14.304-5.4434-23.492-5.4434v0.5c9.1884 0 16.896-0.0065 23.492 5.4434z"/><path d="m82.041 82.912c-0.0055 0.156-0.0082 0.3121-0.0082 0.46817v0.5c0-0.15607 0.0027-0.31216 0.0082-0.46817z"/><path d="m82.033 83.38c0 4.2175 1.961 8.4114 4.0121 10.065v0.5c-2.0511-1.6536-4.0121-5.8476-4.0121-10.065z"/><path d="m86.045 93.445c3.2797 2.6446 7.1983 0.70128 7.1983-2.2858v0.5c0 2.9871-3.9186 4.9305-7.1983 2.2858z"/><path d="m93.243 91.159c0-0.58633-0.15098-1.2129-0.4874-1.8528v0.5c0.33642 0.63996 0.4874 1.2665 0.4874 1.8528z"/><path d="m92.756 89.307c-0.56866-1.0817-1.4398-1.4956-2.4414-1.8145v0.5c1.0016 0.31882 1.8727 0.73277 2.4414 1.8145z"/><path d="m87.506 86.539c-1.5829-0.54154-3.3628-1.3712-5.4648-3.627v0.5c2.102 2.2557 3.8819 3.0854 5.4648 3.627z"/><path d="m125.93 82.912c-2.102 2.2557-3.8819 3.0854-5.4648 3.627v0.5c1.5829-0.54154 3.3628-1.3712 5.4648-3.627z"/><path d="m117.66 87.492c-1.0019 0.31883-1.8746 0.73256-2.4434 1.8145v0.5c0.56876-1.0819 1.4415-1.4956 2.4434-1.8145z"/><path d="m115.21 89.307c-0.33643 0.63996-0.4874 1.2665-0.4874 1.8528v0.5c0-0.58633 0.15097-1.2129 0.4874-1.8528z"/><path d="m114.73 91.159c0 2.9871 3.9186 4.9305 7.1983 2.2858v0.5c-3.2797 2.6446-7.1983 0.70128-7.1983-2.2858z"/><path d="m121.93 93.445c2.0511-1.6536 4.0121-5.8476 4.0121-10.065v0.5c0 4.2175-1.961 8.4114-4.0121 10.065z"/><path d="m125.94 83.38c0-0.15606-3e-3 -0.31215-8e-3 -0.46814v0.5c5e-3 0.15599 8e-3 0.31208 8e-3 0.46814z"/><path d="m103.99 95.801c0 2.9005-2.0851 6.329-4.459 7.3848v0.5c2.3739-1.0557 4.459-4.4843 4.459-7.3848z"/><path d="m99.527 103.19c1.4369 2.022 4.459 8.6151 4.459 13.801v0.5c0-5.1857-3.0221-11.779-4.459-13.801z"/><path d="m103.99 116.99v0.5z"/><path d="m103.99 116.99c0-5.1857 3.0212-11.779 4.459-13.801v0.5c-1.4378 2.022-4.459 8.6151-4.459 13.801z"/><path d="m108.45 103.19c-2.3713-1.0557-4.459-4.4843-4.459-7.3848v0.5c0 2.9005 2.0877 6.329 4.459 7.3848z"/><path d="m103.99 95.801v0.5z"/><path d="m133.22 95.895c-4.2524-0.01965-7.7585 1.4092-9.7988 3.2227v0.5c2.0403-1.8134 5.5464-3.2423 9.7988-3.2227z"/><path d="m123.43 99.117c-4.3561 3.8721-6.5342 9.4686-6.5342 15.105v0.5c0-5.6361 2.1782-11.233 6.5342-15.105z"/><path d="m116.89 114.22c0 4.3831 1.3174 8.7901 3.9522 12.428v0.5c-2.6348-3.6384-3.9522-8.0454-3.9522-12.428z"/><path d="m120.84 126.65c9.641 13.314 20.936 20.365 36.424 25.814v0.5c-15.487-5.4499-26.783-12.5-36.424-25.814z"/><path d="m157.27 152.46c-3.1543 0-8.8893-1.1483-13.191-2.8691v0.5c4.3021 1.7208 10.037 2.8691 13.191 2.8691z"/><path d="m144.08 149.6c4.6845 5.3537 7.6333 13.137 7.6333 20.245v0.5c0-7.1079-2.9488-14.891-7.6333-20.245z"/><path d="m151.71 169.84c0 2.0309-0.24073 4.0066-0.75048 5.8548v0.5c0.50975-1.8482 0.75048-3.8239 0.75048-5.8548z"/><path d="m150.96 175.7c8.7425-11.503 13.016-24.7 13.016-37.268v0.5c0 12.568-4.2738 25.765-13.016 37.268z"/><path d="m163.98 138.43c0-10.933-3.2344-21.391-9.5749-29.845v0.5c6.3405 8.454 9.5749 18.912 9.5749 29.845z"/><path d="m154.4 108.58c-7.1522-9.5359-14.961-12.659-21.176-12.687v0.5c6.2151 0.02871 14.024 3.1516 21.176 12.687z"/><path d="m80.141 110.86c-0.3825 1.5787-0.55564 3.2106-0.55564 4.8532v0.5c0-1.6426 0.17314-3.2746 0.55564-4.8532z"/><path d="m79.585 115.71c0 1.5106 0.14642 3.0301 0.41111 4.5257v0.5c-0.26469-1.4955-0.41111-3.0151-0.41111-4.5257z"/><path d="m79.996 120.23c0.57983 3.125 1.668 6.1512 3.0977 8.9863v0.5c-1.4296-2.8351-2.5178-5.8613-3.0977-8.9863z"/><path d="m83.094 129.22c2.8508 5.6964 6.9148 10.65 11.377 15.068v0.5c-4.4622-4.418-8.5261-9.372-11.377-15.068z"/><path d="m94.471 144.29c4.521 4.375 9.4917 8.2495 14.818 11.535v0.5c-5.3267-3.2857-10.297-7.1602-14.818-11.535z"/><path d="m109.29 155.82c2.6554 1.6544 5.4122 3.1443 8.2441 4.4668v0.5c-2.8319-1.3225-5.5887-2.8124-8.2441-4.4668z"/><path d="m117.53 160.29c2.8445 1.2804 5.7665 2.4632 8.8242 3.084v0.5c-3.0578-0.6208-5.9797-1.8035-8.8242-3.084z"/><path d="m126.36 163.38c-2.8466-1.2437-5.5272-2.7497-8.1406-4.3652v0.5c2.6134 1.6155 5.294 3.1215 8.1406 4.3652z"/><path d="m118.22 159.01c-2.6218-1.5977-5.1532-3.3279-7.6406-5.1094v0.5c2.4874 1.7815 5.0188 3.5117 7.6406 5.1094z"/><path d="m110.58 153.9c-2.4653-1.8151-4.9125-3.6483-7.2402-5.623v0.5c2.3277 1.9748 4.7749 3.8079 7.2402 5.623z"/><path d="m103.34 148.28c-2.3456-1.9496-4.6329-3.9692-6.7852-6.1152v0.5c2.1523 2.146 4.4396 4.1657 6.7852 6.1152z"/><path d="m96.551 142.16c-2.188-2.1103-4.2519-4.3404-6.1699-6.6797v0.5c1.9181 2.3393 3.9819 4.5694 6.1699 6.6797z"/><path d="m90.381 135.48c-1.9496-2.3172-3.684-4.7964-5.248-7.373v0.5c1.5641 2.5767 3.2985 5.0558 5.248 7.373z"/><path d="m85.133 128.11c-2.9304-4.948-5.0042-10.517-5.0042-16.469v0.5c0 5.9523 2.0739 11.521 5.0042 16.469z"/><path d="m80.129 111.64c0-0.26092 4e-3 -0.52258 0.01206-0.78495v0.5c-0.0081 0.26237-0.01206 0.52403-0.01206 0.78495z"/></g><g fill="#592989"><path d="m164.22 191.18c22.079-29.052 23.055-66.098 4.6482-90.641-16.269-21.691-35.051-18.811-41.834-12.783-10.459 9.2965-11.621 25.954-3.4862 37.186 13.021 17.982 28.275 27.503 49.192 34.863-4.2601 0-12.006-1.5502-17.817-3.8743 8.1344 9.2965 12.395 24.016 9.2965 35.249z" stroke-width="1.1621"/><g transform="matrix(-1.1621 0 0 1.1621 258.89 -13.153)" stroke-width=".86042"><path transform="matrix(1.1622 0 0 1.1622 -19.179 -28.359)" d="m155.52 82.912c-2.102 2.2557-3.8819 3.0854-5.4648 3.627a2.5812 2.5812 0 0 1 0.0371 0.0098 2.5812 2.5812 0 0 1 0.24218 0.08984 2.5812 2.5812 0 0 1 0.23243 0.11133 2.5812 2.5812 0 0 1 0.21875 0.13477 2.5812 2.5812 0 0 1 0.20507 0.15625 2.5812 2.5812 0 0 1 0.18946 0.17578 2.5812 2.5812 0 0 1 0.16992 0.19336 2.5812 2.5812 0 0 1 0.15039 0.21094 2.5812 2.5812 0 0 1 0.12891 0.22266 2.5812 2.5812 0 0 1 0.10547 0.23633 2.5812 2.5812 0 0 1 0.082 0.24414 2.5812 2.5812 0 0 1 0.0547 0.25195 2.5812 2.5812 0 0 1 0.0312 0.25586 2.5812 2.5812 0 0 1 8e-3 0.18359 2.5812 2.5812 0 0 1-0.0137 0.25781 2.5812 2.5812 0 0 1-0.0391 0.25391 2.5812 2.5812 0 0 1-0.0625 0.25 2.5812 2.5812 0 0 1-0.0898 0.24414 2.5812 2.5812 0 0 1-0.11133 0.23047 2.5812 2.5812 0 0 1-0.13477 0.2207 2.5812 2.5812 0 0 1-0.15625 0.20508 2.5812 2.5812 0 0 1-0.17578 0.18945 2.5812 2.5812 0 0 1-0.19336 0.16992 2.5812 2.5812 0 0 1-0.21093 0.15039 2.5812 2.5812 0 0 1-0.22266 0.12891 2.5812 2.5812 0 0 1-0.23633 0.10547 2.5812 2.5812 0 0 1-0.24414 0.08008 2.5812 2.5812 0 0 1-0.25195 0.05664 2.5812 2.5812 0 0 1-0.25586 0.03125 2.5812 2.5812 0 0 1-0.1836 0.0059 2.5812 2.5812 0 0 1-0.25781-0.01172 2.5812 2.5812 0 0 1-0.2539-0.03906 2.5812 2.5812 0 0 1-0.25-0.06445 2.5812 2.5812 0 0 1-0.24414-0.08789 2.5812 2.5812 0 0 1-0.23243-0.11133 2.5812 2.5812 0 0 1-0.21875-0.13477 2.5812 2.5812 0 0 1-0.20507-0.15625 2.5812 2.5812 0 0 1-0.18946-0.17578 2.5812 2.5812 0 0 1-0.16992-0.19531 2.5812 2.5812 0 0 1-0.15039-0.20898 2.5812 2.5812 0 0 1-0.12891-0.22461 2.5812 2.5812 0 0 1-0.10546-0.23438 2.5812 2.5812 0 0 1-0.0801-0.24609 2.5812 2.5812 0 0 1-0.0566-0.25 2.5812 2.5812 0 0 1-0.0312-0.25781 2.5812 2.5812 0 0 1-6e-3 -0.18164 2.5812 2.5812 0 0 1 0.0117-0.25781 2.5812 2.5812 0 0 1 0.0391-0.25586 2.5812 2.5812 0 0 1 0.0644-0.25 2.5812 2.5812 0 0 1 0.0879-0.24219 2.5812 2.5812 0 0 1 0.11133-0.23242 2.5812 2.5812 0 0 1 0.13477-0.21875 2.5812 2.5812 0 0 1 0.0488-0.06641c-1.0016 0.31882-1.8727 0.73277-2.4414 1.8145-2.0504 3.9003 2.7874 7.3024 6.7109 4.1387 2.127-1.7148 4.1571-6.1614 4.0039-10.533z"/><path transform="matrix(1.1622 0 0 1.1622 -19.179 -28.359)" d="m111.63 82.912c-0.15315 4.3718 1.877 8.8184 4.0039 10.533 3.9235 3.1637 8.7613-0.23841 6.7109-4.1387-0.56876-1.0819-1.4415-1.4956-2.4434-1.8145a2.5812 2.5812 0 0 1 0.0918 0.12891 2.5812 2.5812 0 0 1 0.12695 0.22266 2.5812 2.5812 0 0 1 0.10547 0.23633 2.5812 2.5812 0 0 1 0.082 0.24414 2.5812 2.5812 0 0 1 0.0566 0.25195 2.5812 2.5812 0 0 1 0.0312 0.25586 2.5812 2.5812 0 0 1 6e-3 0.18359 2.5812 2.5812 0 0 1-0.0117 0.25781 2.5812 2.5812 0 0 1-0.0391 0.25391 2.5812 2.5812 0 0 1-0.0645 0.25 2.5812 2.5812 0 0 1-0.0879 0.24414 2.5812 2.5812 0 0 1-0.11328 0.23047 2.5812 2.5812 0 0 1-0.13477 0.2207 2.5812 2.5812 0 0 1-0.15625 0.20508 2.5812 2.5812 0 0 1-0.17578 0.18945 2.5812 2.5812 0 0 1-0.19336 0.16992 2.5812 2.5812 0 0 1-0.20898 0.15039 2.5812 2.5812 0 0 1-0.22461 0.12891 2.5812 2.5812 0 0 1-0.23438 0.10547 2.5812 2.5812 0 0 1-0.24609 0.08008 2.5812 2.5812 0 0 1-0.25195 0.05664 2.5812 2.5812 0 0 1-0.25586 0.03125 2.5812 2.5812 0 0 1-0.18164 0.0059 2.5812 2.5812 0 0 1-0.25782-0.01172 2.5812 2.5812 0 0 1-0.25586-0.03906 2.5812 2.5812 0 0 1-0.25-0.06445 2.5812 2.5812 0 0 1-0.24218-0.08789 2.5812 2.5812 0 0 1-0.23243-0.11133 2.5812 2.5812 0 0 1-0.2207-0.13477 2.5812 2.5812 0 0 1-0.20508-0.15625 2.5812 2.5812 0 0 1-0.1875-0.17578 2.5812 2.5812 0 0 1-0.17187-0.19531 2.5812 2.5812 0 0 1-0.14844-0.20898 2.5812 2.5812 0 0 1-0.12891-0.22461 2.5812 2.5812 0 0 1-0.10546-0.23438 2.5812 2.5812 0 0 1-0.082-0.24609 2.5812 2.5812 0 0 1-0.0566-0.25 2.5812 2.5812 0 0 1-0.0312-0.25781 2.5812 2.5812 0 0 1-6e-3 -0.18164 2.5812 2.5812 0 0 1 0.0137-0.25781 2.5812 2.5812 0 0 1 0.0371-0.25586 2.5812 2.5812 0 0 1 0.0644-0.25 2.5812 2.5812 0 0 1 0.0879-0.24219 2.5812 2.5812 0 0 1 0.11328-0.23242 2.5812 2.5812 0 0 1 0.13477-0.21875 2.5812 2.5812 0 0 1 0.15625-0.20703 2.5812 2.5812 0 0 1 0.17578-0.1875 2.5812 2.5812 0 0 1 0.19336-0.16992 2.5812 2.5812 0 0 1 0.21093-0.15039 2.5812 2.5812 0 0 1 0.22266-0.12891 2.5812 2.5812 0 0 1 0.23633-0.10547 2.5812 2.5812 0 0 1 0.20898-0.07031c-1.5829-0.54154-3.3628-1.3712-5.4648-3.627z"/></g><path d="m100.81 46.507c-12.41 0-22.886-7e-3 -31.794 7.3535 17.431-5.8103 31.793 8.2518 31.793 15.207 0-6.9549 14.297-21.017 31.728-15.207-8.9084-7.3605-19.317-7.3535-31.727-7.3535z" stroke-width="1.1621"/><path d="m100.78 111.89c0-7.0038-4.0823-15.907-6.023-18.638 3.2061-1.4258 6.023-6.0555 6.023-9.9728 0 3.9173 2.8192 8.547 6.0218 9.9728-1.9418 2.7308-6.0218 11.635-6.0218 18.638z" stroke-width="1.1621"/><path d="m130.99 174.54c-3.8446-1.6797-7.4651-3.7141-10.995-5.896-3.541-2.1578-6.9614-4.4958-10.321-6.9018-3.3296-2.4515-6.6337-4.927-9.7775-7.5942-3.1679-2.6331-6.2563-5.3598-9.1632-8.2581-2.9551-2.8501-5.7442-5.862-8.3347-9.0214-2.6331-3.1296-4.9739-6.4777-7.0863-9.9577-4.1312-6.9756-7.004-14.866-6.7444-23.305-0.99165 4.0929-0.93917 8.4525-0.19294 12.669 0.78311 4.2206 2.2514 8.3078 4.1823 12.137 3.8503 7.6935 9.3391 14.384 15.366 20.351 6.106 5.9088 12.821 11.141 20.015 15.578 3.5864 2.2344 7.3076 4.2475 11.132 6.0336 3.8418 1.7294 7.7899 3.3268 11.92 4.1652z"/></g></g></svg>
