<?xml version="1.0" encoding="UTF-8" standalone="no"?>
<!-- Generator: Adobe Illustrator 15.0.0, SVG Export Plug-In . SVG Version: 6.00 Build 0)  -->

<svg
   xmlns:dc="http://purl.org/dc/elements/1.1/"
   xmlns:cc="http://creativecommons.org/ns#"
   xmlns:rdf="http://www.w3.org/1999/02/22-rdf-syntax-ns#"
   xmlns:svg="http://www.w3.org/2000/svg"
   xmlns="http://www.w3.org/2000/svg"
   xmlns:sodipodi="http://sodipodi.sourceforge.net/DTD/sodipodi-0.dtd"
   xmlns:inkscape="http://www.inkscape.org/namespaces/inkscape"
   version="1.1"
   id="Layer_1"
   x="0px"
   y="0px"
   width="240"
   height="240"
   viewBox="0 0 240 240"
   enable-background="new 0 0 240 224"
   xml:space="preserve"
   sodipodi:docname="Athena.svg"
   inkscape:export-filename="/home/benjamin/Documents/c-node/c-node-mobile/Avatar.png"
   inkscape:export-xdpi="409.60001"
   inkscape:export-ydpi="409.60001"
   inkscape:version="0.92.4 (f8dce91, 2019-08-02)"><metadata
   id="metadata31"><rdf:RDF><cc:Work
       rdf:about=""><dc:format>image/svg+xml</dc:format><dc:type
         rdf:resource="http://purl.org/dc/dcmitype/StillImage" /><dc:title></dc:title></cc:Work></rdf:RDF></metadata><defs
   id="defs29" /><sodipodi:namedview
   pagecolor="#4c3e8e"
   bordercolor="#666666"
   borderopacity="1"
   objecttolerance="10"
   gridtolerance="10"
   guidetolerance="10"
   inkscape:pageopacity="0"
   inkscape:pageshadow="2"
   inkscape:window-width="1855"
   inkscape:window-height="1026"
   id="namedview27"
   showgrid="false"
   inkscape:zoom="2.1071429"
   inkscape:cx="96.796308"
   inkscape:cy="108.20438"
   inkscape:window-x="65"
   inkscape:window-y="28"
   inkscape:window-maximized="1"
   inkscape:current-layer="Layer_1"
   inkscape:pagecheckerboard="true" />
<g
   inkscape:groupmode="layer"
   id="layer1"
   inkscape:label="Background"
   transform="translate(0,16)"
   style="display:none"><rect
     style="fill:#4c3e8e;fill-opacity:1;stroke-width:98.83464813;stroke-miterlimit:4;stroke-dasharray:none"
     id="rect11325"
     width="285.22034"
     height="300.40683"
     x="-17.559322"
     y="-37.016949" /></g><g
   id="g24"
   transform="matrix(0.86041546,0,0,0.86041546,16.501684,24.400794)">
	<circle
   cx="118.22"
   cy="114.583"
   r="84.998001"
   id="circle2"
   style="fill:#4c3e8e" />
	<path
   d="m 81.472,175.838 c -19,-25 -19.84,-56.88 -4,-78 14,-18.666 30.163,-16.188 36,-11 9,8 10,22.334 3,32 -11.205,15.474 -24.332,23.667 -42.332,30.001 3.666,0 10.332,-1.334 15.332,-3.334 -7,8 -10.666,20.667 -8,30.333 z"
   id="path4"
   inkscape:connector-curvature="0"
   style="fill:#d7d3e5" />
	<path
   d="M 135.95,70.753"
   id="path6"
   inkscape:connector-curvature="0"
   style="fill:#b9b2d5" />
	<path
   d="m 136.065,107.605 c 0,-6.027 3.513,-13.689 5.183,-16.039 -2.759,-1.227 -5.183,-5.211 -5.183,-8.582 0,3.371 -2.426,7.355 -5.182,8.582 1.671,2.35 5.182,10.012 5.182,16.039 z"
   id="path8"
   inkscape:connector-curvature="0"
   style="fill:#d7d3e5" />
	<g
   id="g18">
		<path
   d="m 161.571,68.004 c 0.178,5.081 -2.182,10.249 -4.654,12.242 -4.56,3.677 -10.182,-0.278 -7.799,-4.811 1.983,-3.772 6.328,-0.858 12.453,-7.431 z"
   id="path10"
   inkscape:connector-curvature="0"
   style="fill:#d7d3e5" />
		<circle
   cx="154.375"
   cy="75.097"
   r="3"
   id="circle12"
   style="fill:#4c3e8e" />
		<path
   d="m 110.561,68.004 c -0.178,5.081 2.182,10.249 4.654,12.242 4.56,3.677 10.182,-0.278 7.799,-4.811 -1.983,-3.772 -6.328,-0.858 -12.453,-7.431 z"
   id="path14"
   inkscape:connector-curvature="0"
   style="fill:#d7d3e5" />
		<circle
   cx="117.757"
   cy="75.097"
   r="3"
   id="circle16"
   style="fill:#4c3e8e" />
	</g>
	<path
   d="m 114.98,156 c 2.71,-1.184 5.262,-2.618 7.75,-4.156 2.496,-1.521 4.907,-3.169 7.275,-4.865 2.347,-1.728 4.676,-3.473 6.892,-5.353 2.233,-1.856 4.41,-3.778 6.459,-5.821 2.083,-2.009 4.049,-4.132 5.875,-6.359 1.856,-2.206 3.506,-4.566 4.995,-7.019 2.912,-4.917 4.937,-10.479 4.754,-16.427 0.699,2.885 0.662,5.958 0.136,8.93 -0.552,2.975 -1.587,5.856 -2.948,8.555 -2.714,5.423 -6.583,10.139 -10.831,14.345 -4.304,4.165 -9.037,7.853 -14.108,10.981 -2.528,1.575 -5.151,2.994 -7.847,4.253 -2.708,1.219 -5.491,2.345 -8.402,2.936 z"
   id="path20"
   inkscape:connector-curvature="0"
   style="fill:#b9b2d5" />
	<path
   d="m 136.037,51.339 c 10.679,0 19.694,-0.006 27.36,6.328 -15,-5 -27.359,7.101 -27.359,13.086 0,-5.985 -12.303,-18.086 -27.303,-13.086 7.666,-6.334 16.623,-6.328 27.302,-6.328 z"
   id="path22"
   inkscape:connector-curvature="0"
   style="fill:#d7d3e5" />
</g>
</svg>