<?xml version="1.0" encoding="UTF-8"?>
<svg width="803" height="617" data-name="Layer 1" version="1.1" viewBox="0 0 803 617" xmlns="http://www.w3.org/2000/svg" xmlns:cc="http://creativecommons.org/ns#" xmlns:dc="http://purl.org/dc/elements/1.1/" xmlns:rdf="http://www.w3.org/1999/02/22-rdf-syntax-ns#">
 <metadata>
  <rdf:RDF>
   <cc:Work rdf:about="">
    <dc:format>image/svg+xml</dc:format>
    <dc:type rdf:resource="http://purl.org/dc/dcmitype/StillImage"/>
    <dc:title>mobile login</dc:title>
   </cc:Work>
  </rdf:RDF>
 </metadata>
 <title>mobile login</title>
 <polygon points="184.9 427 247.07 329.23 107.84 240.69 35.931 353.77 151.1 427" fill="#2f2e41"/>
 <path transform="translate(-198.5 -141.5)" d="m471.5 599h-154v-31h154zm-152-2h150v-27h-150z" fill="#f0f0f0"/>
 <g fill="#6a31a3">
  <circle cx="254" cy="442" r="10"/>
  <circle cx="226" cy="442" r="10"/>
  <circle cx="198" cy="442" r="10"/>
  <circle cx="170" cy="442" r="10"/>
  <circle cx="142" cy="442" r="10"/>
 </g>
 <g>
  <path transform="translate(-198.5 -141.5)" d="m654.5 254.5v-76h38v-37h-186v186h159v-18.186a25.814 25.814 0 0 1 25.814-25.814h1.1856v-29z" fill="#2f2e41"/>
  <rect x="538" y="480" width="124" height="26" fill="#6a31a3"/>
  <rect x="507" y="352" width="182" height="24" fill="#2f2e41"/>
 </g>
 <rect y="615" width="778" height="2" fill="#3f3d56"/>
 <g fill="#f0f0f0">
  <path transform="translate(-198.5 -141.5)" d="m918.69 758.5h-227.37a26.845 26.845 0 0 1-26.814-26.814v-422.37a26.845 26.845 0 0 1 26.814-26.814h227.37a26.845 26.845 0 0 1 26.814 26.814v422.37a26.845 26.845 0 0 1-26.814 26.814zm-227.37-474a24.843 24.843 0 0 0-24.814 24.814v422.37a24.843 24.843 0 0 0 24.814 24.814h227.37a24.843 24.843 0 0 0 24.814-24.814v-422.37a24.843 24.843 0 0 0-24.814-24.814z"/>
  <path transform="translate(-198.5 -141.5)" d="m778 302.5a6 6 0 1 1 6-6 6.0066 6.0066 0 0 1-6 6zm0-10a4 4 0 1 0 4 4 4.0043 4.0043 0 0 0-4-4z"/>
  <rect x="594.5" y="154" width="44" height="2"/>
 </g>
 <path transform="translate(-198.5 -141.5)" d="m927.5 311.5v80a80.004 80.004 0 0 1-80-80z" fill="#6a31a3"/>
 <path transform="translate(-198.5 -141.5)" d="m928.5 731.5h-247v-421h247zm-245-2h243v-417h-243z" fill="#f0f0f0"/>
 <circle cx="671" cy="218" r="27" opacity=".1"/>
 <circle cx="667" cy="221" r="27" fill="#6a31a3"/>
 <g fill="#f0f0f0">
  <rect x="494" y="186" width="38" height="14"/>
  <rect x="515" y="319" width="38" height="14"/>
  <path transform="translate(-198.5 -141.5)" d="m897.5 512.5h-184v-26h184zm-182-2h180v-22h-180z"/>
 </g>
 <rect x="507" y="428" width="182" height="24" fill="#2f2e41"/>
 <g fill="#f0f0f0">
  <rect x="515" y="395" width="38" height="14"/>
  <path transform="translate(-198.5 -141.5)" d="m897.5 588.5h-184v-26h184zm-182-2h180v-22h-180z"/>
  <path transform="translate(-198.5 -141.5)" d="m868.5 641.5h-126v-28h126zm-124-2h122v-24h-122z"/>
 </g>
 <path transform="translate(-198.5 -141.5)" d="m892.5 502.5a10.001 10.001 0 0 1-17.71 6.37l-0.01-0.01a9.9993 9.9993 0 1 1 17.43-8.73 0.00979 0.00979 0 0 0 0.01 0.01 10.227 10.227 0 0 1 0.28 2.36z" fill="#592989"/>
 <g fill="#6a31a3">
  <path transform="translate(-198.5 -141.5)" d="m892.5 502.5a10.001 10.001 0 0 1-17.71 6.37l-0.01-0.01a10.228 10.228 0 0 1-0.28-2.36 10.001 10.001 0 0 1 17.71-6.37 0.00979 0.00979 0 0 0 0.01 0.01 10.227 10.227 0 0 1 0.28 2.36z" opacity=".1"/>
  <circle cx="688" cy="367" r="10"/>
  <path transform="translate(-198.5 -141.5)" d="m892.5 578.5a10.001 10.001 0 0 1-17.71 6.37l-0.01-0.01a9.9993 9.9993 0 1 1 17.43-8.73 0.00979 0.00979 0 0 0 0.01 0.01 10.227 10.227 0 0 1 0.28 2.36z"/>
 </g>
 <path transform="translate(-198.5 -141.5)" d="m892.5 578.5a10.001 10.001 0 0 1-17.71 6.37l-0.01-0.01a10.228 10.228 0 0 1-0.28-2.36 10.001 10.001 0 0 1 17.71-6.37 0.00979 0.00979 0 0 0 0.01 0.01 10.227 10.227 0 0 1 0.28 2.36z" opacity=".1"/>
 <circle cx="688" cy="443" r="10" fill="#6a31a3"/>
 <rect x="468" y="48" width="52" height="52" fill="#2f2e41"/>
 <g fill="#f0f0f0">
  <path transform="translate(-198.5 -141.5)" d="m869.5 227.5a12 12 0 1 1 12-12 12.013 12.013 0 0 1-12 12zm0-22a10 10 0 1 0 10 10 10.011 10.011 0 0 0-10-10z"/>
  <path transform="translate(-198.5 -141.5)" d="m605.5 394.5h-26v-26h26zm-24-2h22v-22h-22z"/>
  <path transform="translate(-198.5 -141.5)" d="m1001.5 588.5h-26v-26h26zm-24-2h22v-22h-22z"/>
  <path transform="translate(-198.5 -141.5)" d="m488.5 414.17 4.4618 2.4031 15.182 8.1825 24.51 13.206 14.284-26.501a21.525 21.525 0 0 0-8.7439-29.189 28.59 28.59 0 0 0-33.381 4.5292l-0.00749 0.00749a28.623 28.623 0 0 0-5.3751 7.0746z"/>
 </g>
 <polygon points="356.9 542.94 353.91 575.88 342.68 577.37 335.19 539.94" fill="#ffb8b8"/>
 <path transform="translate(-198.5 -141.5)" d="m538.18 718.87s14.224-7.4863 17.218-1.4973c0 0-2.2459 17.967 6.7377 20.213s12.727 17.967 0 19.464-20.962-2.9945-25.453-2.9945 0-15.721 0-15.721z" fill="#f0f0f0"/>
 <polygon points="266.32 542.94 269.31 575.88 280.54 577.37 288.03 539.94" fill="#ffb8b8"/>
 <path transform="translate(-198.5 -141.5)" d="m482.03 718.87s-14.224-7.4863-17.218-1.4973c0 0 2.2459 17.967-6.7377 20.213s-12.727 17.967 0 19.464 20.962-2.9946 25.453-2.9946 0-15.721 0-15.721z" fill="#f0f0f0"/>
 <g fill="#ffb8b8">
  <circle cx="327.7" cy="259.21" r="19.464"/>
  <path transform="translate(-198.5 -141.5)" d="m464.07 438.89 15.721 24.705 18.716-1.4973 30.694 2.2459s2.8972-5.7944 5.2629-11.432a44.285 44.285 0 0 0 2.972-8.7814c0.74863-5.2404-9.7322-10.481-9.7322-10.481s-0.41178-0.07489-1.1005-0.23957c-0.9133-0.21709-2.3208-0.57646-3.863-1.1005-3.4811-1.1828-7.666-3.1891-8.5119-6.1462-1.4973-5.2404 9.7322-12.727 9.7322-12.727l-13.475-12.727s-11.971 16.627-26.509 20.415a23.155 23.155 0 0 1-2.5604 0.524c-0.04487 0.00749-0.08224 0.015-0.12721 0.02248-15.721 2.2459-17.218 17.218-17.218 17.218z"/>
  <path transform="translate(-198.5 -141.5)" d="m472.3 432.15-8.2349 6.7377s-6.7377 32.191-4.4918 41.175-0.74863 17.218-0.74863 18.716-6.7377 57.644-6.7377 57.644-13.475 29.945 0.74863 26.951 8.9836-32.94 8.9836-32.94l17.218-52.404v-44.169z"/>
  <path transform="translate(-198.5 -141.5)" d="m531.44 438.14 5.989 4.4918 2.9945 62.885 22.459 53.901s16.47 26.202 5.989 26.951-17.218-26.951-17.218-26.951l-20.213-51.655-2.9945-50.158z"/>
 </g>
 <g fill="#f0f0f0">
  <path transform="translate(-198.5 -141.5)" d="m494.01 442.63s14.973 10.481 38.929 6.7377c0 0 6.7377 13.475 2.9945 20.962s4.4918 25.453 5.989 27.699 18.716 48.661 24.705 98.819 22.459 84.595 8.2349 89.087-43.42 9.7322-46.415 5.2404-7.4863-116.04-7.4863-116.04l-8.2349 42.672s11.229 72.617 2.9945 74.114-59.89-2.9945-58.393-11.978 16.47-56.147 16.47-56.147-0.74863-94.327 14.224-112.29c0 0 5.989-9.7322-2.2459-22.459s-7.4863-32.94-7.4863-32.94 5.989 4e-5 15.721-13.475z"/>
  <polygon points="282.91 280.14 295.51 307.87 298.51 306.37 285.47 279.62"/>
  <path transform="translate(-198.5 -141.5)" d="m522.74 432.31 9.4552 20.804 2.2684-0.20214-0.77111-3.541-7.0895-15.961c-0.9133-0.21709-2.3208-0.57646-3.863-1.1005z"/>
  <path transform="translate(-198.5 -141.5)" d="m492.96 416.57a12.323 12.323 0 0 0 22.609 2.201c-9.4702-12.382-1.3476-20.161 14.037-26.045a12.312 12.312 0 0 0-1.3251-13.655 28.687 28.687 0 0 0-23.47 7.7259l-0.00749 0.00749-10.93 20.273a12.264 12.264 0 0 0-0.9134 9.4926z"/>
 </g>
 <ellipse cx="316.1" cy="261.45" rx="2.6202" ry="4.4918" fill="#ffb8b8"/>
 <path transform="translate(-198.5 -141.5)" d="m522.41 395.62 22.504 10.196 4.125-9.1033a21.563 21.563 0 0 0-4.3421-9.0809l-15.489-7.0146z" fill="#f0f0f0"/>
 <circle cx="378" cy="445" r="10" fill="#6a31a3"/>
 <circle cx="56.957" cy="507.91" r="6.5354" fill="#ff6584"/>
 <g fill="#f0f0f0">
  <rect x="87.975" y="541.97" width="2" height="74.411"/>
  <circle cx="88.975" cy="541.97" r="10.523"/>
  <path transform="translate(-198.5 -141.5)" d="m287.48 729.33s-1.5033-32.332-32.32-28.574"/>
 </g>
</svg>
