<?xml version="1.0" encoding="UTF-8"?>
<svg width="1083" height="758.56" data-name="Layer 1" version="1.1" viewBox="0 0 1083 758.56" xmlns="http://www.w3.org/2000/svg" xmlns:cc="http://creativecommons.org/ns#" xmlns:dc="http://purl.org/dc/elements/1.1/" xmlns:rdf="http://www.w3.org/1999/02/22-rdf-syntax-ns#">
 <metadata>
  <rdf:RDF>
   <cc:Work rdf:about="">
    <dc:format>image/svg+xml</dc:format>
    <dc:type rdf:resource="http://purl.org/dc/dcmitype/StillImage"/>
    <dc:title>mention</dc:title>
   </cc:Work>
  </rdf:RDF>
 </metadata>
 <title>mention</title>
 <g>
  <path transform="translate(-58.5 -70.719)" d="m869.45 561.34s-21.958-6.1244-24.319 3.0741c0 0 8.4873 24.237-3.2953 30.037s-12.27 28.715 5.8215 26.984 28.164-10.421 34.392-11.764-4.702-21.795-4.702-21.795z" fill="#ccc"/>
  <ellipse cx="541.5" cy="725.09" rx="541.5" ry="33.469" fill="#3f3d56"/>
  <path transform="translate(-58.5 -70.719)" d="m965.66 737.58s-20.173-10.617-24.42-2.1235c0 0 3.1852 25.482-9.5556 28.667s-18.05 25.482 0 27.605 29.729-4.247 36.099-4.247 0-22.296 0-22.296z" fill="#ccc"/>
  <circle cx="406.16" cy="389.54" r="350.3" fill="#3f3d56"/>
  <path transform="translate(-58.5 -70.719)" d="m521.7 514.36c-77.414 118.72-56.203 269.71-56.203 269.71s146.72-41.486 224.14-160.2 56.203-269.71 56.203-269.71-146.72 41.486-224.14 160.2z" fill="#ccc" fill-rule="evenodd"/>
 </g>
 <path transform="translate(-58.5 -70.719)" d="m465.09 782.7s-1.8846-0.30065-5.3531-1.0024c-2.7667-0.56129-6.5759-1.3633-11.227-2.4659-41.581-9.8038-152.13-42.944-224.4-130.08-90.459-109.1-86.65-261.53-86.65-261.53s138.32 22.475 229.46 120.45q5.9244 6.3152 11.528 13.092c78.711 94.93 86.049 222.66 86.63 254.24 0.08023 4.7315 0.02015 7.2976 0.02015 7.2976z" fill="#592989"/>
 <path transform="translate(-58.5 -70.719)" d="m409.3 514.36c77.414 118.72 56.203 269.71 56.203 269.71s-146.72-41.486-224.14-160.2-56.203-269.71-56.203-269.71 146.72 41.486 224.14 160.2z" fill="none" stroke="#f2f2f2" stroke-miterlimit="10" stroke-width="2"/>
 <path transform="translate(-58.5 -70.719)" d="m465.07 775.4c-2.045 2.4659-3.8493 4.571-5.333 6.2952-3.2879 3.7491-5.1525 5.7139-5.1525 5.7139s-2.2654-2.847-6.0747-8.1799c-20.911-29.151-88.174-132.8-82.981-252.53q0.42106-9.4128 1.3834-18.625 5.9244 6.3152 11.528 13.092c78.711 94.93 86.049 222.66 86.63 254.24z" opacity=".1"/>
 <path transform="translate(-58.5 -70.719)" d="m579.85 535.35c-6.119 141.6-111.23 252.05-111.23 252.05s-95.189-119.11-89.07-260.71 111.23-252.05 111.23-252.05 95.189 119.11 89.07 260.71z" fill="#6a31a3"/>
 <line x1="410.12" x2="433.23" y1="712.68" y2="209.7" fill="none" stroke="#3f3d56" stroke-miterlimit="10" stroke-width="2"/>
 <line x1="89.884" x2="89.884" y1="712.79" y2="577.61" fill="#ccc" stroke="#f2f2f2" stroke-miterlimit="10" stroke-width="2"/>
 <g fill="#f2f2f2">
  <circle cx="89.884" cy="577.61" r="19.116"/>
  <path transform="translate(-58.5 -70.719)" d="m148.38 731.65s-2.7309-58.736-58.715-51.909"/>
  <line x1="555.45" x2="555.45" y1="492.11" y2="113.53" stroke="#ccc" stroke-miterlimit="10" stroke-width="2"/>
 </g>
 <g>
  <circle cx="555.45" cy="113.53" r="26.294" fill="#ccc"/>
  <path transform="translate(-58.5 -70.719)" d="m613.95 291.33s-3.7563-80.79-80.76-71.399" fill="#ccc"/>
  <path transform="translate(-58.5 -70.719)" d="m929.79 353.32-22.825 43.016s-165.04 31.604-143.97 80.765 44.772 121.15 57.062 119.39 79.887-40.383 82.521-51.795-60.574-64.963-60.574-64.963l104.47-20.191s14.924 70.231-4.3894 118.51-30.726 179.09-17.558 180.84 46.528 12.29 61.452 2.6336 21.947-221.23 21.947-221.23 31.604-138.71 12.29-154.51-90.422-32.482-90.422-32.482z" fill="#575a89"/>
 </g>
 <path transform="translate(-58.5 -70.719)" d="m978.52 201.89s0.87789 32.482-5.2673 35.115 34.237 18.436 34.237 18.436l7.0231-12.29s-7.901-43.894-6.1452-47.406-29.848 6.1452-29.848 6.1452z" fill="#9f616a"/>
 <g fill="#ccc">
  <circle cx="934.66" cy="84.728" r="53.826"/>
  <circle cx="938.38" cy="34.338" r="22.273"/>
  <path transform="translate(-58.5 -70.719)" d="m967.18 92.992a22.275 22.275 0 0 1 19.953-22.153 22.52 22.52 0 0 0-2.3201-0.12043 22.273 22.273 0 0 0 0 44.546 22.52 22.52 0 0 0 2.3201-0.12042 22.275 22.275 0 0 1-19.953-22.153z"/>
 </g>
 <circle cx="933.18" cy="110.98" r="36.871" fill="#9f616a"/>
 <path transform="translate(-58.5 -70.719)" d="m1017.6 229.54s-31.604 9.6567-47.406 0-53.551 18.436-59.696 30.726 22.825 24.581 22.825 24.581-8.2728 23.734-6.5841 35.554c1.7558 12.29-1.3168 37.31-1.3168 37.31s77.558 51.098 94.811 28.092c2.6336-3.5115 24.581-86.033 24.581-86.033l30.726-30.726s-19.313-28.092-30.726-30.726-27.214-8.7788-27.214-8.7788z" fill="#d0cde1"/>
 <path transform="translate(-58.5 -70.719)" d="m805.57 409.95s-59.696 30.726-47.406 39.505 62.33-34.237 62.33-34.237z" fill="#9f616a"/>
 <path transform="translate(-58.5 -70.719)" d="m1040 388s-26.562-17.934-30.839-8.9669 29.083 29.158 36.106 21.257-5.2673-12.29-5.2673-12.29z" fill="#9f616a"/>
 <path transform="translate(-58.5 -70.719)" d="m1059.7 259.39 15.802 9.6567s53.551 73.742 35.115 90.422-65.841 50.039-65.841 50.039-15.802-22.825-10.535-23.703 47.406-35.993 47.406-35.993l-36.871-68.475z" fill="#d0cde1"/>
 <path transform="translate(-58.5 -70.719)" d="m921.02 255.88-11.412 4.3894-29.848 53.551-79.01 95.689s10.535 16.68 19.313 13.168 74.62-77.254 74.62-77.254l43.016-66.719z" fill="#d0cde1"/>
 <ellipse cx="934.66" cy="67.17" rx="37.122" ry="22.273" fill="#ccc"/>
 <rect x="685" y="543.24" width="173" height="173" fill="#6a31a3"/>
 <path transform="translate(-58.5 -70.719)" d="m893.5 693.26c0 24.507-11.476 39.952-29.633 39.952-9.2935 0-16.371-4.9609-17.595-12.336h-1.3229c-3.2742 7.6729-10.021 11.873-19.083 11.873-16.14 0-26.921-12.932-26.921-32.18 0-18.488 10.848-31.353 26.69-31.353 8.1359 0 15.048 4.101 18.091 10.815h1.3229v-9.1943h13.196v42.763c0 5.3247 2.9435 8.5328 8.2352 8.5328 9.1612 0 14.982-11.112 14.982-28.377 0-27.55-20.638-45.971-51.131-45.971-30.162 0-51.66 21.993-51.66 53.115 0 31.816 21.266 52.123 54.372 52.123a100.38 100.38 0 0 0 17.992-1.5214 5.23 5.23 0 0 1 2.2159 10.22 92.424 92.424 0 0 1-20.737 2.249c-40.25-0.03307-66.014-24.904-66.014-63.5 0-37.67 26.293-63.533 64.624-63.533 36.843 0 62.376 22.986 62.376 56.323zm-80.301 7.6068c0 12.237 5.7547 19.645 15.114 19.645 9.8557 0 16.073-7.6068 16.073-19.645s-6.2177-19.48-15.908-19.48c-9.6243 0-15.28 7.2099-15.28 19.48z" fill="#fff"/>
</svg>
