<?xml version="1.0" encoding="UTF-8"?>
<svg width="799" height="667.08" data-name="Layer 1" version="1.1" viewBox="0 0 799 667.08" xmlns="http://www.w3.org/2000/svg" xmlns:cc="http://creativecommons.org/ns#" xmlns:dc="http://purl.org/dc/elements/1.1/" xmlns:rdf="http://www.w3.org/1999/02/22-rdf-syntax-ns#">
 <metadata>
  <rdf:RDF>
   <cc:Work rdf:about="">
    <dc:format>image/svg+xml</dc:format>
    <dc:type rdf:resource="http://purl.org/dc/dcmitype/StillImage"/>
    <dc:title>newspaper</dc:title>
   </cc:Work>
  </rdf:RDF>
 </metadata>
 <title>newspaper</title>
 <g>
  <path transform="translate(-200.5 -116.46)" d="m849.5 746.62h-485l0.21874-51.422c0.55348-130.12 104.41-237.33 234.51-239.54q2.1082-0.03587 4.2235-0.0359h4e-4a245.34 245.34 0 0 1 85.752 15.406c92.054 34.283 153.84 121.38 157.95 219.53z" fill="#f2f2f2"/>
  <rect y="630.16" width="799" height="2" fill="#e6e6e6"/>
  <polygon points="398.29 400.16 419.66 415.71 441.03 598.33 491.54 598.33 474.06 390.45 404.12 363.25" fill="#dcdcdc"/>
  <path transform="translate(-200.5 -116.46)" d="m509.42 458.34s-5.8284 66.055 17.485 67.998 112.68-19.428 112.68-19.428l42.741 151.54 64.112-33.027s-38.856-170.97-62.169-180.68-101.02-29.142-101.02-29.142l-56.341 9.7139z" fill="#e6e6e6"/>
  <path transform="translate(-200.5 -116.46)" d="m649.3 710.91s-11.657 44.684-3.8856 48.57a140.53 140.53 0 0 1 13.6 7.7711v-7.7711s9.7139 9.7139 9.7139 17.485 52.455 9.7139 52.455 0-1.9428-21.371-11.657-27.199-21.371-38.856-21.371-38.856z" fill="#e6e6e6"/>
  <polygon points="505.14 514.79 509.02 551.7 522.62 575.02 555.65 538.1 530.4 497.3" fill="#dcdcdc"/>
  <path transform="translate(-200.5 -116.46)" d="m736.72 668.16s7.1537-24.46 14.262-21.944 34.307 27.772 34.307 27.772l19.428 11.657s38.856 3.8856 27.199 15.542-54.398 27.199-73.826 19.428-23.313-9.7139-23.313-9.7139l-5.8284 3.8856-23.313-5.8284 3.8856-40.799s5.8284 17.485 27.199 0z" fill="#e6e6e6"/>
  <circle cx="374.97" cy="54.349" r="44.684" fill="#dcdcdc"/>
  <path transform="translate(-200.5 -116.46)" d="m547.3 197.04s3.8856 40.799-7.7711 40.799 1.9428 50.512 33.027 50.512 42.741-60.226 42.741-60.226-21.371-7.7712-17.485-33.027-50.512 1.9428-50.512 1.9428z" fill="#dcdcdc"/>
 </g>
 <g fill="#ccc">
  <g>
   <path transform="translate(-200.5 -116.46)" d="m544.21 234.73-16.332 6.9977-44.325 18.753a8.9996 8.9996 0 0 0-5.4366 9.2944l16.734 148.75s-17.485 36.913 9.7139 38.856l3.8855 13.6 31.085-36.913 116.57-3.8856 1.9428-188.45-53.336-21.076s-7.2541 40.108-60.499 14.078z"/>
   <path transform="translate(-200.5 -116.46)" d="m489.99 266.01-7.1794-2.0513a5.919 5.919 0 0 0-7.4712 4.7594l-19.052 119.51a41.502 41.502 0 0 0 4.0547 25.917c5.8867 11.146 18.113 21.254 43.247 9.2334l17.485-126.28z"/>
   <path transform="translate(-200.5 -116.46)" d="m635.7 238.81 23.313 3.8856 64.112 89.368 5.8283 15.542 36.913-11.657s-1.9428 17.485 17.485 15.542c0 0-23.313 64.112-71.883 44.684s-64.112-77.711-64.112-77.711z"/>
  </g>
  <polygon points="462.4 161.2 374.97 126.23 371.09 137.89 411.89 172.86"/>
 </g>
 <path transform="translate(-200.5 -116.46)" d="m548.57 173.66c1.6503-0.44064 1.8928-2.6318 1.9481-4.339 0.29622-9.1425 5.8015-18.524 14.553-21.185a24.467 24.467 0 0 1 10.313-0.5675 39.063 39.063 0 0 1 13.967 4.6595c2.2793 1.2814 4.5151 2.8248 7.1005 3.2163 1.7075 0.25852 9.1006 2.4081 10.801 2.7106 3.7381 0.66508 7.2121 4.0096 10.799 2.765 3.4317-1.1907 4.1914-5.634 4.2743-9.2655 0.189-8.2732-6.0916-19.724-11.624-25.878-4.198-4.6705-10.519-6.8265-16.698-7.9476a111.17 111.17 0 0 0-21.838-1.3285c-9.8886 0.17636-20.051 0.93961-28.968 5.2183s-16.407 12.794-16.834 22.675c-0.089 2.0583 0.1233 4.1252-0.04976 6.1781-0.42218 5.0081-3.0815 9.5316-4.329 14.4a26.35 26.35 0 0 0 3.6798 21.057c3.3093 4.87 16.543 9.2911 16.351 15.176 2.3918-2.478-3.2487-4.9724-0.85683-7.4504a5.8925 5.8925 0 0 0 1.7524-7.1991l-2.5398-9.9067c-0.46505-1.814-0.92235-3.7775-0.21992-5.5133 2.7228-6.7281 5.6661 3.2594 8.4177 2.5247z" fill="#e6e6e6"/>
 <polygon points="371.09 137.89 334.18 281.66 477.94 332.17 561.48 262.23 613.94 104.86 528.45 167.03" fill="#f2f2f2"/>
 <g fill="#e6e6e6">
  <rect transform="translate(2.6591 725.91) rotate(-75.217)" x="647.36" y="216.99" width="1.9425" height="144.67"/>
  <rect transform="translate(-9.6274 729.38) rotate(-75.217)" x="643.47" y="226.7" width="1.9425" height="144.67"/>
  <rect transform="translate(-20.467 734.74) rotate(-75.217)" x="641.53" y="236.41" width="1.9425" height="144.67"/>
  <rect transform="translate(-31.306 740.1) rotate(-75.217)" x="639.59" y="246.13" width="1.9425" height="144.67"/>
  <rect transform="translate(-42.146 745.46) rotate(-75.217)" x="637.64" y="255.84" width="1.9425" height="144.67"/>
  <rect transform="translate(-52.985 750.81) rotate(-75.217)" x="635.7" y="265.56" width="1.9425" height="144.67"/>
  <rect transform="translate(-63.825 756.17) rotate(-75.217)" x="633.76" y="275.27" width="1.9425" height="144.67"/>
  <rect transform="translate(-74.664 761.53) rotate(-75.217)" x="631.81" y="284.98" width="1.9425" height="144.67"/>
  <rect transform="translate(-85.504 766.88) rotate(-75.217)" x="629.87" y="294.7" width="1.9425" height="144.67"/>
 </g>
 <path transform="translate(-200.5 -116.46)" d="m512.35 360.1s43.695-26.099 63.123-8.6137-56.341 42.741-56.341 42.741z" fill="#dcdcdc"/>
 <path transform="translate(-200.5 -116.46)" d="m464.73 372.86 56.341-21.371s-9.7139 36.913 9.7139 38.856l-27.199 33.027s-54.398 0-38.856-50.512z" fill="#ccc"/>
 <polygon points="412.49 255.6 487.26 280.8 469.56 319.36 394.8 294.17" fill="#e6e6e6"/>
 <polygon points="544.97 173.83 601.31 131.09 585.77 183.54 527.48 226.29" fill="#ccc"/>
 <rect transform="translate(-254.73 403.94) rotate(-37.183)" x="711.08" y="339.83" width="70.718" height="1.9432" fill="#e6e6e6"/>
 <rect transform="translate(-268.43 405.94) rotate(-37.183)" x="707.19" y="361.2" width="70.718" height="1.9432" fill="#e6e6e6"/>
 <path transform="translate(-200.5 -116.46)" d="m777.52 353.43s48.57-29.142 17.485-40.799-31.085 33.027-31.085 33.027-1.9428 9.7139 13.6 7.7711z" fill="#dcdcdc"/>
 <polygon points="292.4 171.89 290.46 247.66 320.58 239.06 296.29 239.88" opacity=".1"/>
 <path transform="translate(-200.5 -116.46)" d="m280.91 712.35c6.0732 22.45 26.875 36.354 26.875 36.354s10.955-22.495 4.8822-44.945-26.875-36.354-26.875-36.354-10.955 22.495-4.8822 44.945z" fill="#e6e6e6"/>
 <path transform="translate(-200.5 -116.46)" d="m289.83 707.53c16.665 16.223 18.7 41.16 18.7 41.16s-24.984-1.3641-41.648-17.587-18.7-41.16-18.7-41.16 24.984 1.3641 41.648 17.587z" fill="#ccc"/>
</svg>
