<?xml version="1.0" standalone="no"?>
<svg viewBox="0 0 200 200" xmlns="http://www.w3.org/2000/svg">
  <path fill="#592989" d="M22.7,-31.3C36.4,-26.5,59.3,-32,69.6,-26.7C79.9,-21.4,77.6,-5.3,71.4,7.4C65.1,20.1,54.8,29.4,43,29.9C31.1,30.4,17.6,22.2,8.7,20.8C-0.3,19.5,-4.6,25,-10.5,27.2C-16.4,29.4,-23.8,28.2,-33.9,24.8C-44,21.3,-56.7,15.7,-62.6,6.1C-68.5,-3.5,-67.5,-16.9,-62.3,-28.5C-57.1,-40.1,-47.7,-49.9,-36.6,-55.9C-25.5,-61.9,-12.8,-64.2,-4.1,-57.7C4.5,-51.3,9,-36.1,22.7,-31.3Z" transform="translate(100 100)" />
</svg>
