<?xml version="1.0" encoding="UTF-8" standalone="no"?>
<svg
   xmlns:dc="http://purl.org/dc/elements/1.1/"
   xmlns:cc="http://creativecommons.org/ns#"
   xmlns:rdf="http://www.w3.org/1999/02/22-rdf-syntax-ns#"
   xmlns:svg="http://www.w3.org/2000/svg"
   xmlns="http://www.w3.org/2000/svg"
   xmlns:sodipodi="http://sodipodi.sourceforge.net/DTD/sodipodi-0.dtd"
   xmlns:inkscape="http://www.inkscape.org/namespaces/inkscape"
   viewBox="0 0 1440 80"
   version="1.1"
   id="svg1154"
   sodipodi:docname="waves-bottom.svg"
   width="1440"
   height="80"
   inkscape:version="1.0.2 (e86c870879, 2021-01-15)">
  <metadata
     id="metadata1160">
    <rdf:RDF>
      <cc:Work
         rdf:about="">
        <dc:format>image/svg+xml</dc:format>
        <dc:type
           rdf:resource="http://purl.org/dc/dcmitype/StillImage" />
        <dc:title></dc:title>
      </cc:Work>
    </rdf:RDF>
  </metadata>
  <defs
     id="defs1158" />
  <sodipodi:namedview
     pagecolor="#ffffff"
     bordercolor="#666666"
     borderopacity="1"
     objecttolerance="10"
     gridtolerance="10"
     guidetolerance="10"
     inkscape:pageopacity="0"
     inkscape:pageshadow="2"
     inkscape:window-width="2560"
     inkscape:window-height="1404"
     id="namedview1156"
     showgrid="false"
     inkscape:zoom="10.229478"
     inkscape:cx="1455.1725"
     inkscape:cy="45.007363"
     inkscape:window-x="0"
     inkscape:window-y="0"
     inkscape:window-maximized="1"
     inkscape:current-layer="svg1154"
     inkscape:document-rotation="0" />
  <path
     fill="#592989"
     fill-opacity="1"
     d="M 1440.1242,38.890037 1392.119,35.665408 C 1344.1139,32.197411 1248.1037,26.113205 1152.0934,22.645208 1056.0823,19.420579 960.07212,19.420579 864.06185,32.379937 768.05158,45.582663 672.0413,71.136326 576.03103,74.604323 480.02075,77.828952 384.01048,58.359494 288.0002,48.624766 191.98915,38.890037 95.97887,38.890037 47.973733,38.890037 H -0.03140395 V -0.04887835 H 47.973733 c 48.005137,0 144.015417,0 240.026467,0 96.01028,0 192.02055,0 288.03083,0 96.01027,0 192.02055,0 288.03082,0 96.01027,0 192.02045,0 288.03155,0 96.0103,0 192.0205,0 240.0256,0 h 48.0052 z"
     id="path1152"
     style="stroke-width:0.780054" />
</svg>
