<?xml version="1.0" encoding="UTF-8" standalone="no"?>
<svg
   xmlns:dc="http://purl.org/dc/elements/1.1/"
   xmlns:cc="http://creativecommons.org/ns#"
   xmlns:rdf="http://www.w3.org/1999/02/22-rdf-syntax-ns#"
   xmlns:svg="http://www.w3.org/2000/svg"
   xmlns="http://www.w3.org/2000/svg"
   xmlns:sodipodi="http://sodipodi.sourceforge.net/DTD/sodipodi-0.dtd"
   xmlns:inkscape="http://www.inkscape.org/namespaces/inkscape"
   viewBox="0 0 1440 80"
   version="1.1"
   id="svg1106"
   sodipodi:docname="waves-top.svg"
   width="1440"
   height="80"
   inkscape:version="1.0.2 (e86c870879, 2021-01-15)">
  <metadata
     id="metadata1112">
    <rdf:RDF>
      <cc:Work
         rdf:about="">
        <dc:format>image/svg+xml</dc:format>
        <dc:type
           rdf:resource="http://purl.org/dc/dcmitype/StillImage" />
        <dc:title />
      </cc:Work>
    </rdf:RDF>
  </metadata>
  <defs
     id="defs1110" />
  <sodipodi:namedview
     pagecolor="#ffffff"
     bordercolor="#666666"
     borderopacity="1"
     objecttolerance="10"
     gridtolerance="10"
     guidetolerance="10"
     inkscape:pageopacity="0"
     inkscape:pageshadow="2"
     inkscape:window-width="2560"
     inkscape:window-height="1372"
     id="namedview1108"
     showgrid="false"
     inkscape:zoom="10.229478"
     inkscape:cx="1429.9124"
     inkscape:cy="57.650985"
     inkscape:window-x="0"
     inkscape:window-y="0"
     inkscape:window-maximized="1"
     inkscape:current-layer="svg1106"
     inkscape:document-rotation="0" />
  <path
     fill="#592989"
     fill-opacity="1"
     d="M 0.00871637,3.8425579 48.007826,10.20859 c 47.999109,6.12805 143.997324,19.217089 239.995544,28.557904 95.99821,9.697786 191.99644,15.647352 287.99465,6.306536 95.99823,-9.697787 191.99644,-34.685953 287.99465,-34.86444 95.99823,0.178487 191.99653,25.166653 287.99473,31.711172 95.9982,6.544518 191.9965,-6.544519 239.9955,-12.672568 l 47.9992,-6.366034 v 57.115807 h -47.9992 c -47.999,0 -143.9973,0 -239.9955,0 -95.9982,0 -191.9965,0 -287.99473,0 -95.99821,0 -191.99642,0 -287.99465,0 -95.99821,0 -191.99644,0 -287.99465,0 -95.99822,0 -191.996435,0 -239.995544,0 H 0.00871637 Z"
     id="path1104"
     style="stroke-width:0.771327" />
</svg>
