<?xml version="1.0" encoding="UTF-8" standalone="no"?>
<svg
   xmlns:dc="http://purl.org/dc/elements/1.1/"
   xmlns:cc="http://creativecommons.org/ns#"
   xmlns:rdf="http://www.w3.org/1999/02/22-rdf-syntax-ns#"
   xmlns:svg="http://www.w3.org/2000/svg"
   xmlns="http://www.w3.org/2000/svg"
   xmlns:sodipodi="http://sodipodi.sourceforge.net/DTD/sodipodi-0.dtd"
   xmlns:inkscape="http://www.inkscape.org/namespaces/inkscape"
   viewBox="0 0 1440 80"
   version="1.1"
   id="svg1106"
   sodipodi:docname="waves-top.svg"
   width="1440"
   height="80"
   inkscape:version="1.0.2 (e86c870879, 2021-01-15)">
  <metadata
     id="metadata1112">
    <rdf:RDF>
      <cc:Work
         rdf:about="">
        <dc:format>image/svg+xml</dc:format>
        <dc:type
           rdf:resource="http://purl.org/dc/dcmitype/StillImage" />
        <dc:title></dc:title>
      </cc:Work>
    </rdf:RDF>
  </metadata>
  <defs
     id="defs1110" />
  <sodipodi:namedview
     pagecolor="#ffffff"
     bordercolor="#666666"
     borderopacity="1"
     objecttolerance="10"
     gridtolerance="10"
     guidetolerance="10"
     inkscape:pageopacity="0"
     inkscape:pageshadow="2"
     inkscape:window-width="2560"
     inkscape:window-height="1404"
     id="namedview1108"
     showgrid="false"
     inkscape:zoom="0.90416667"
     inkscape:cx="717.78802"
     inkscape:cy="71.520738"
     inkscape:window-x="0"
     inkscape:window-y="0"
     inkscape:window-maximized="1"
     inkscape:current-layer="svg1106"
     inkscape:document-rotation="0" />
  <path
     fill="#592989"
     fill-opacity="1"
     d="M -0.62211982,4.7322966 47.37788,11.115216 c 48,6.144305 144,19.268063 240,28.633655 96,9.72351 192,15.688858 288,6.323265 96,-9.723511 192,-34.77796 288,-34.95692 96,0.17896 192.00002,25.233409 288.00002,31.795288 96,6.561877 192,-6.561879 240,-12.706184 l 48,-6.38292 v 57.267311 h -48 c -48,0 -144,0 -240,0 -96,0 -192.00002,0 -288.00002,0 -96,0 -192,0 -288,0 -96,0 -192,0 -288,0 -96,0 -192,0 -240,0 H -0.62211982 Z"
     id="path1104"
     style="stroke-width:0.772357" />
</svg>
