<?xml version="1.0" encoding="UTF-8"?>
<svg width="888" height="637.96" data-name="Layer 1" version="1.1" viewBox="0 0 888 637.96" xmlns="http://www.w3.org/2000/svg" xmlns:cc="http://creativecommons.org/ns#" xmlns:dc="http://purl.org/dc/elements/1.1/" xmlns:rdf="http://www.w3.org/1999/02/22-rdf-syntax-ns#">
 <metadata>
  <rdf:RDF>
   <cc:Work rdf:about="">
    <dc:format>image/svg+xml</dc:format>
    <dc:type rdf:resource="http://purl.org/dc/dcmitype/StillImage"/>
    <dc:title>adventure</dc:title>
   </cc:Work>
  </rdf:RDF>
 </metadata>
 <title>adventure</title>
 <circle cx="174.02" cy="76.131" r="30.997" fill="#ccc"/>
 <path transform="translate(-156 -131.24)" d="m235.61 580.54 19.044-66.045 6.483 2.0259s-7.6985 49.433-19.854 61.993z" fill="#ccc"/>
 <path transform="translate(-156 -131.24)" d="m308.14 226.01s2.4311 25.932-3.2415 33.225 3.6467 21.475 3.6467 21.475l17.018 20.259 25.122-11.345 3.6467-21.07-2.4311-14.587s-8.5089-8.5089-4.8622-23.906-38.898-4.0518-38.898-4.0518z" fill="#ffb9b9"/>
 <path transform="translate(-156 -131.24)" d="m308.14 226.01s2.4311 25.932-3.2415 33.225 3.6467 21.475 3.6467 21.475l17.018 20.259 25.122-11.345 3.6467-21.07-2.4311-14.587s-8.5089-8.5089-4.8622-23.906-38.898-4.0518-38.898-4.0518z" opacity=".1"/>
 <polygon points="166.73 579.78 166.73 596.39 189.02 600.85 186.99 573.3" fill="#ffb9b9"/>
 <polygon points="233.59 573.3 228.72 596.39 238.45 603.28 255.47 590.72 253.44 570.86" fill="#ffb9b9"/>
 <g>
  <path transform="translate(-156 -131.24)" d="m347.04 730.06s-8.5089-14.383-24.311-5.3679c0 0-2.8363 15.903-5.6726 17.118s-18.639 24.311 0 26.337 27.958-4.0519 27.958-4.0519-3.6467 3.1378 2.0259 1.517 3.2415-10.535 3.2415-10.535z" fill="#ccc"/>
  <path transform="translate(-156 -131.24)" d="m402.55 720.33s-12.561 8.9141-14.587 4.8622-5.2674-3.6467-5.2674-3.6467-11.345 42.768-4.0519 44.794a24.584 24.584 0 0 0 14.181-0.73253s9.7245-6.8104 9.7245-1.543 27.147 4.8882 38.493 4.483 5.2674-8.9141 5.2674-8.9141l-14.992-14.587-17.018-24.716s-7.6985-6.8882-11.75-3e-5z" fill="#ccc"/>
  <path transform="translate(-156 -131.24)" d="m283.02 449.26 17.018 163.29s9.3193 99.676 10.94 101.3 12.156 6.8882 35.251 0l-5.2674-130.47 9.7245-81.037 22.285 55.916s5.2674 150.32 8.9141 150.32 25.932 7.2934 31.199-1.6208 4.457-104.94 4.457-104.94-2.4311-151.54-20.259-156.4-114.26 3.6467-114.26 3.6467z" fill="#f2f2f2"/>
 </g>
 <circle cx="174.02" cy="81.804" r="27.958" fill="#ffb9b9"/>
 <path transform="translate(-156 -131.24)" d="m331.64 290.84s-2.8363-17.423-2.8363-20.664-12.561-5.2674-12.561-5.2674-9.7245-10.94-11.75-9.3193-32.82 22.285-37.682 25.122-10.13 14.992-9.7245 15.802 25.527 53.485 25.527 53.485 10.94 32.415 3.2415 49.433-17.423 50.648-3.2415 57.536 83.063 21.88 95.624 8.9141 21.475-16.613 24.716-16.613-13.371-56.321-9.7245-61.588-1.6208-38.088-1.6208-38.088l18.639-52.269s-1.6208-29.173-38.493-35.656l-22.058-10.695z" fill="#575a89"/>
 <path transform="translate(-156 -131.24)" d="m255.87 456.56s-2.0259 19.449-2.0259 25.122-9.7245 38.898 4.457 42.95 12.966-44.165 12.966-44.165v-24.716z" fill="#ffb9b9"/>
 <path transform="translate(-156 -131.24)" d="m424.03 438.32s2.4311 18.639 1.2156 22.69 11.75 39.303-5.6726 41.329-12.966-42.139-12.966-42.139v-21.88z" fill="#ffb9b9"/>
 <path transform="translate(-156 -131.24)" d="m252.23 574.06 11.75-62.399h3.6467a24.543 24.543 0 0 1 3.6467 23.501c-4.8622 13.776-8.9141 38.898-8.9141 38.898z" fill="#ccc"/>
 <path transform="translate(-156 -131.24)" d="m263.17 291.65-6.0778 4.8622s-8.1037 128.85-6.0778 138.57-7.2934 23.501 0.81037 24.716 17.828 6.483 22.285 3.2415 5.2674-14.992 6.8882-17.828 4.457-36.467 4.457-36.467 8.5089-33.63 3.2415-58.752-10.13-50.648-10.13-50.648z" fill="#575a89"/>
 <path transform="translate(-156 -131.24)" d="m391.61 281.52 18.639 15.802 14.182 82.658s8.9141 64.425 2.0259 65.235-17.423-1.2156-21.88 0-8.1037-2.0259-8.1037-2.0259-4.8622-25.932-4.8622-26.337-3.2414-29.984-3.2414-29.984l-4.0519-33.225 6.0778-36.467z" fill="#575a89"/>
 <path transform="translate(-156 -131.24)" d="m303.69 664.01s-2.6337 7.5648-6.2642 17.865c-1.6856 4.7893-3.5859 10.174-5.543 15.665-1.2601 3.5494-2.5405 7.1434-3.8006 10.652-2.0097 5.6118-3.9627 11.001-5.6686 15.628-2.2529 6.1062-4.0802 10.891-5.0608 13.124-4.457 10.13-85.899-6.0778-92.382-10.13s-8.1037-17.828-8.9141-37.277c-0.00405-0.1013-0.00811-0.2026-0.00811-0.30389-0.10535-3.9263 0.89545-9.7731 2.5689-16.633 0.83465-3.4279 1.8395-7.107 2.9578-10.928 1.4992-5.1256 3.201-10.498 4.9797-15.847 7.6418-22.974 16.649-45.429 16.649-45.429s15.802-10.94 21.475-18.233 36.872-12.966 36.872-12.966c8.9141 0.40519 29.173 34.846 37.277 45.381s4.8622 49.433 4.8622 49.433z" fill="#e6e6e6"/>
 <g fill="#2f2e41">
  <circle cx="102.31" cy="467.54" r="3.6467"/>
  <circle cx="107.98" cy="471.59" r="2.0259"/>
  <path transform="translate(-156 -131.24)" d="m297.42 681.88c-1.6856 4.7893-3.5859 10.174-5.543 15.665l-110.31-35.867c1.4992-5.1256 3.201-10.498 4.9797-15.847z"/>
  <path transform="translate(-156 -131.24)" d="m288.08 708.19c-2.0097 5.6118-3.9627 11.001-5.6686 15.628l-106.37-34.587c-0.10535-3.9263 0.89545-9.7731 2.5689-16.633z"/>
 </g>
 <path transform="translate(-156 -131.24)" d="m258.31 599.59s8.1037 35.656 3.2415 67.261 12.156 61.183 12.156 61.183" fill="none" stroke="#2f2e41" stroke-miterlimit="10" stroke-width="3"/>
 <path transform="translate(-156 -131.24)" d="m263.98 602.42s-15.802 57.536-16.207 65.64-6.8882 66.045-14.992 72.123" fill="none" stroke="#2f2e41" stroke-miterlimit="10" stroke-width="3"/>
 <g>
  <path transform="translate(-156 -131.24)" d="m308.56 195.98s-6.3285-16.454 2.8478-21.833l2.5314 7.2777s23.099-13.923 29.111-10.758l-5.6956 7.5942s26.896 0 28.794 10.442l-9.4927 0.31642s10.126 6.6449 10.442 17.403l-20.251 1.2657 9.8091 5.6956s-36.705 5.0628-45.565-9.4927z" fill="#ccc"/>
  <path transform="translate(-156 -131.24)" d="m303.08 196.63s7.2934 14.587 17.018 10.94 0-17.018 0-17.018l-6.483-3.2415z" fill="#ccc"/>
  <rect transform="translate(-281.46 427.52) rotate(-49.17)" x="539.17" y="391.09" width="17.448" height="50.793" fill="#6a31a3"/>
  <rect transform="translate(-373.91 693.89) rotate(-49.17)" x="784.05" y="628.19" width="17.448" height="45.023" fill="#6a31a3"/>
  <path transform="translate(-156 -131.24)" d="m843 531.05v1.0237q-0.03493 3.8559-0.221 7.6771a170.99 170.99 0 0 1-341.41 2.2333q-0.349-5.4263-0.349-10.934a170.14 170.14 0 0 1 31.441-98.837q2.4601-3.4896 5.118-6.8512c1.2213-1.5587 2.4776-3.0825 3.7455-4.5946a171.02 171.02 0 0 1 238.29-22.613c2.0589 1.6634 4.0828 3.3849 6.0602 5.1413q2.373 2.1112 4.6644 4.3155a170.53 170.53 0 0 1 52.065 109.06q0.59324 7.1187 0.59324 14.377z" fill="#f2f2f2"/>
 </g>
 <g fill="#6a31a3">
  <path transform="translate(-156 -131.24)" d="m672.01 723.56c-106.15 0-192.51-86.36-192.51-192.51a191.88 191.88 0 0 1 51.366-130.92l4.2632 3.9565a186.08 186.08 0 0 0-49.813 126.96c0 102.94 83.75 186.69 186.69 186.69a185.22 185.22 0 0 0 134.03-56.725l4.1757 4.0485a190.99 190.99 0 0 1-138.2 58.493z"/>
  <rect x="495.07" y="588.25" width="48.854" height="48.854"/>
  <path transform="translate(-156 -131.24)" d="m537.58 425.36a0.95129 0.95129 0 0 1 0.23264 0.13959c0.91892 0.75608-0.23264 2.2101-0.09306 3.4082 0.16285 1.5354 2.2101 1.8728 3.7571 2.024 1.547 0.16285 3.5012 1.4075 2.7684 2.78-3.8851 1.3377-7.8167 0.02326-11.783-1.5005a170.14 170.14 0 0 0-31.441 98.837q0 5.5136 0.349 10.934a4.4199 4.4199 0 0 0 1.0585 0.57c1.1632 0.442 2.5125 0.3606 3.5827 0.98872 0.84913 0.50018 1.4191 1.3842 2.2682 1.8495 2.4311 1.326 5.8044-1.2214 8.0726 0.36059a20.857 20.857 0 0 1 1.6634 1.6983c2.0938 1.8146 5.5368 0.59323 7.9563 1.9542 1.5587 0.8724 2.3613 2.6172 3.1988 4.1992 2.0821 3.9549 5.4554 7.84 9.9105 8.154a26.688 26.688 0 0 1 4.2108 0.13958c1.3726 0.31406 2.7219 1.5122 2.5009 2.8964-0.38386 2.3846 0.791 4.9901 0.47691 7.3747-0.57 4.362-6.7466 6.2696-7.27 10.632a26.264 26.264 0 0 1-0.16285 2.8731c-0.27917 1.1399-1.1399 2.0705-1.4424 3.2104-0.5816 2.1519 0.96546 4.3038 2.6521 5.7462 1.6983 1.454 3.7222 2.7102 4.6528 4.7342 0.97709 2.1519 0.50018 4.6528 0.81424 6.9908 0.69792 5.1064 5.1064 8.8868 9.6429 11.33a10.068 10.068 0 0 1 3.7688 2.7452c1.1632 1.6866 1.0469 3.9084 1.4424 5.9207 0.95383 4.9203 5.0948 8.9799 5.2111 13.993 0.08142 3.571-1.896 6.8047-3.0825 10.166a23.462 23.462 0 0 0-1.0585 10.981 171.81 171.81 0 0 0 21.089 15.296 6.1442 6.1442 0 0 0 0.8724-1.9542 3.8649 3.8649 0 0 0-1.803-4.0014 9.5623 9.5623 0 0 0 3.3384-2.1403 3.2748 3.2748 0 0 0 0.60486-3.699c2.0472 0.2559 4.4783 0.38385 5.8276-1.1865 1.0818-1.2562 1.012-3.1406 0.5816-4.7342a19.525 19.525 0 0 1-1.1632-4.8156 86.623 86.623 0 0 0 14.214-0.47691 9.2275 9.2275 0 0 0-4.3271-5.4205c2.1403-0.3606 4.0828-2.9196 4.7575-4.9785a12.681 12.681 0 0 0 0.09306-6.4325 3.4217 3.4217 0 0 1-0.06979-1.675 3.2955 3.2955 0 0 1 1.6983-1.6401q5.3042-3.0534 10.608-6.0952a6.396 6.396 0 0 0 1.6983-1.2446c1.105-1.3144 0.9422-3.2802 0.37223-4.8971s-1.4773-3.1406-1.6983-4.8389c-0.6514-5.0832 4.7924-8.7356 6.6302-13.528a20.318 20.318 0 0 0 1.0004-5.9207c0.15121-2.1636 0.16285-4.6644-1.4889-6.0486-1.5936-1.3377-4.0712-1.0352-5.7346-2.2799-1.5238-1.1399-2.0472-3.3384-3.7106-4.2573-1.5122-0.8375-3.3966-0.30243-5.0832-0.69792-2.9545-0.68629-4.8156-4.0945-7.84-4.4085-1.6983-0.18611-3.6292 0.65139-5.025-0.33733-1.233-0.884-1.2795-2.6405-1.5122-4.1294a11.535 11.535 0 0 0-9.3056-9.3289c-1.7564-0.27917-3.6641-0.17448-5.1646-1.1399-1.5122-0.97708-2.1984-2.8033-3.3965-4.1642-1.9076-2.1752-4.932-2.9545-7.7585-3.6176q-5.7578-1.3435-11.504-2.6986c-2.0356-0.48854-4.6644-0.74445-5.7695 1.0469a7.8693 7.8693 0 0 0-0.67466 2.1519 6.6734 6.6734 0 0 1-6.258 4.6993 7.3943 7.3943 0 0 0-4.3504-3.3733 27.448 27.448 0 0 1-3.5361-0.8375 4.9543 4.9543 0 0 1-2.1403-6.8745 6.1722 6.1722 0 0 0-1.0585-7.4096c-1.9542-1.7564-4.7808-2.1868-7.4096-2.0123-0.68628-1.5005 0.46528-3.1872 1.6983-4.2806 1.2446-1.0818 2.7452-2.1519 3.0127-3.7804 0.43039-2.559-2.8382-4.5016-5.3158-3.7455-2.4776 0.76772-4.0596 3.1755-5.1064 5.5485a16.734 16.734 0 0 1-2.0589 3.9432 4.042 4.042 0 0 1-3.9084 1.6052c-2.0472-0.52344-2.8266-2.9545-3.2802-5.0018a32.614 32.614 0 0 1-1.0934-8.3867 10.948 10.948 0 0 1 3.1639-7.6306c3.3849-3.1174 8.596-2.815 13.167-2.3148a3.3539 3.3539 0 0 1 0.349-4.4202 5.0257 5.0257 0 0 1 4.5598-1.1167 6.256 6.256 0 0 1 3.5245 2.1054c1.3028 1.582 1.675 3.7339 2.6521 5.5252 0.98872 1.803 3.1988 3.3384 5.0018 2.3729 1.5703-0.83751 1.8146-3.0011 1.4307-4.7342-0.39548-1.7215-1.2214-3.4082-1.0818-5.1762 0.26753-3.3616 3.7688-5.3972 6.8512-6.7814s6.607-3.257 7.0955-6.607a6.1739 6.1739 0 0 1 0.37222-1.9076 3.7293 3.7293 0 0 1 1.3842-1.3028c8.9915-5.944 18.146-11.969 28.429-15.215 0.53507-0.17448 0.59323 0.01164 1.1399-0.11632 0.76771-0.442 0.25591-1.6634-0.47691-2.1519s-1.7099-0.8724-1.896-1.7332c-0.128-0.62813 0.24428-1.2563 0.33733-1.896a2.3672 2.3672 0 0 0-3.1057-2.3962c-0.82587-1.0934 0.80261-2.3613 2.1286-2.7335a58.139 58.139 0 0 1 12.155-1.9774 2.1645 2.1645 0 0 1 1.3842 0.23264 1.645 1.645 0 0 1 0.10469 2.2566 12.74 12.74 0 0 1-1.8495 1.6866 5.0808 5.0808 0 0 0-1.326 5.1064c2.1519 1.0934 4.4783 2.2217 6.8629 1.8379 2.3729-0.38386 4.4783-3.0592 3.3616-5.1879-1.0352-1.9891-4.1642-2.4427-4.6993-4.6179-0.62812-2.5474 2.9778-4.8156 2.1636-7.3049-0.349-1.0934-1.4424-1.7448-2.2799-2.5242a6.882 6.882 0 0 1-1.5005-7.6073 8.6676 8.6676 0 0 1-7.5841-2.3729c-1.8146-1.8262-3.257-4.7226-5.8393-4.6295-2.3613 0.06979-4.3969 2.8266-6.607 1.9891-0.5467-0.20937-1.1167-0.62812-1.6401-0.38385a1.3558 1.3558 0 0 0-0.6165 1.012c-0.55833 2.687 0.40712 5.7462-1.0585 8.0726-1.5936 2.5241-5.2809 2.8731-7.2118 5.153-1.0469 1.233-1.454 2.8964-2.4194 4.1992s-3.0011 2.1403-4.1643 1.0004a5.7321 5.7321 0 0 0-1.5587-6.9792 14.989 14.989 0 0 0-3.4431-1.675 20.434 20.434 0 0 1-3.8502-2.1403 3.8153 3.8153 0 0 1-1.4075-1.5122 3.4768 3.4768 0 0 1 0.093-2.3962 9.7936 9.7936 0 0 1 7.7818-6.4441c1.5354-0.20937 3.3268-0.13958 4.3504-1.3144 0.53507-0.6165 0.81424-1.5587 1.6052-1.803a2.3402 2.3402 0 0 1 1.4773 0.17448c1.9193 0.67465 3.8269 1.3493 5.7462 2.024a3.9361 3.9361 0 0 0 2.0472 0.33732 1.377 1.377 0 0 0 1.1981-1.454c-0.18611-0.95382-1.6517-1.4075-1.5122-2.3729a1.5086 1.5086 0 0 1 0.47692-0.81424 20.554 20.554 0 0 1 16.296-6.4325c0.72118 1.1981-0.41875 2.6056-1.3842 3.6176-0.95382 1.0236-1.7215 2.8382-0.55834 3.6176a3.0643 3.0643 0 0 0 1.5238 0.349 13.291 13.291 0 0 1 4.0712 1.233c1.9891 0.86076 3.9432 1.8146 5.8509 2.8382a7.3764 7.3764 0 0 1 0.13959-3.7688 2.5594 2.5594 0 0 1 3.0243-1.6401c1.1399 0.442 1.7215 1.9542 2.9429 2.0938 1.6168 0.18612 2.2566-2.2101 1.582-3.699s-2.024-2.7219-2.1286-4.362c-0.08143-1.0934 0.33733-2.4544-0.53507-3.1174a2.3141 2.3141 0 0 0-1.0352-0.37222q-10.957-2.0065-21.926-4.0247c-1.3028-0.24428-3.1755-0.05816-3.2337 1.2562-0.03489 0.74445 0.62813 1.4773 0.33733 2.1519-0.31406 0.72119-1.3377 0.663-2.0821 0.91893a2.827 2.827 0 0 0-1.6285 2.9894 8.1485 8.1485 0 0 0 1.3726 3.3616c-1.4307-0.59323-3.5827-0.69792-5.0134-1.3028a19.296 19.296 0 0 0-1.2563-4.8273 1.7038 1.7038 0 0 0-2.2217-1.3726c-1.8844 0.2908-3.7688 0.57-5.6532 0.86077a2.1866 2.1866 0 0 0-1.2912 0.50018c-0.73281 0.77934-0.01163 2.024-0.03489 3.0941a2.8996 2.8996 0 0 1-2.245 2.5009 8.4623 8.4623 0 0 1-3.5826-0.04653c-2.6405-0.40712-5.2693-0.81424-7.9098-1.2214a12.957 12.957 0 0 0 5.9788-4.0014c1.0469-1.233 1.6052-3.5361 0.09306-4.1177a3.6088 3.6088 0 0 0-1.3726-0.10468c-3.5826 0.02326-6.4092-2.9662-9.7592-4.234a9.5933 9.5933 0 0 0-3.2919-0.60487z"/>
  <path transform="translate(-156 -131.24)" d="m842.78 539.75a4.2 4.2 0 0 1-3.5594 1.6866c-3.6408-0.31406-5.1762-5.5601-8.7822-6.1533a1.4054 1.4054 0 0 0-0.95382 0.09306c-0.53508 0.2908-0.62813 1.012-0.663 1.6168-0.15121 3.001-0.27917 6.1184 0.89567 8.8868 1.7099 4.0479 6.1417 7.4445 5.2111 11.737-5.0018-2.3148-7.6073-7.933-8.7822-13.319-1.1865-5.3856-1.3726-11.039-3.4896-16.134-1.6168 2.0589-4.9901 0.36059-6.4558-1.803-1.3958-2.0472-2.2566-4.4202-3.6059-6.5023-1.3493-2.0705-3.4198-3.9316-5.8858-4.0479-2.5939-0.11632-4.8505 1.6634-6.828 3.35a15.802 15.802 0 0 0-4.2457 4.7226c-1.3842 2.7917-1.0236 6.0719-1.0934 9.1776-0.06979 3.35-0.77935 6.8978-3.0708 9.3638-2.2915 2.4544-6.5139 3.3151-9.0381 1.0934a10.196 10.196 0 0 1-2.5242-4.5481 221.32 221.32 0 0 1-6.8396-24.404c-0.41876 1.8844-2.0821 4.3155-3.6641 3.2104a3.2671 3.2671 0 0 1-0.83751-1.0934c-2.9545-4.9901-8.4099-7.9912-13.935-9.7942-5.5136-1.7913-11.318-2.6288-16.773-4.6063a42.885 42.885 0 0 1-8.7124-4.3387 6.8605 6.8605 0 0 0-0.41875 7.0025 5.6094 5.6094 0 0 0 6.3046 2.6405c1.2097-0.39549 2.2333-1.233 3.4314-1.6517 1.1981-0.40712 2.8149-0.20938 3.3384 0.95382 0.51181 1.105-0.2559 2.4427 0.12795 3.6059 0.57 1.7564 3.2337 1.896 4.1643 3.5012a3.241 3.241 0 0 1-0.8724 3.7455 15.676 15.676 0 0 1-3.5129 2.1636c-3.9084 2.1752-6.6884 5.8858-10.108 8.7705-3.4198 2.8964-8.2471 5.0018-12.318 3.1523 0.96545-4.9203-4.8854-8.5263-5.9672-13.423-0.36059-1.6168-0.17448-3.3268-0.67465-4.8971-0.73282-2.2799-2.7568-3.8386-4.4085-5.5601a21.855 21.855 0 0 1-5.9905-15.878c0.093-2.024 0.46528-4.0828 0-6.0603-0.45365-1.9658-2.0938-3.8734-4.1177-3.792-4.6179 0.20938-10.446 0.55834-12.865-3.3849-0.8724-1.4075-1.2446-3.4663 0.01163-4.5481a4.3917 4.3917 0 0 1 3.3384-0.57c3.478 0.33733 6.9443 0.68629 10.422 1.0236 2.4311 0.23264 5.0599 0.43039 7.1537-0.8375s3.001-4.6528 1.0585-6.1533c-1.4075-1.0934-3.9432-1.0352-4.362-2.7684-0.33733-1.454 1.2679-3.0941 0.39549-4.3155-0.6165-0.86076-2.0123-0.62812-2.8615 0.02327a18.694 18.694 0 0 1-2.4078 2.1054c-1.6634 0.86077-3.6408 0.0349-5.4321-0.52344s-4.1875-0.60486-5.0483 1.0585c-0.97709 1.8495 0.84913 4.2922-0.10469 6.1533-1.2795 2.4544-5.5834 1.0585-7.3747 3.1755-2.0472 2.4194 1.3958 6.0486 0.70955 9.1428a5.6996 5.6996 0 0 1-5.6182-0.31407 5.439 5.439 0 0 1-2.3497-5.0716c0.16285-1.3958 0.89567-2.8266 0.40712-4.141a4.8342 4.8342 0 0 0-2.4544-2.245q-5.0599-2.8091-10.12-5.595c-0.94219 1.7448 0.24427 3.8967 1.7332 5.2111 1.4773 1.3028 3.3384 2.2915 4.3155 4.013a5.2744 5.2744 0 0 1-1.9774 6.9559 1.227 1.227 0 0 1-1.012 0.17448 1.4023 1.4023 0 0 1-0.65139-0.8724c-1.7797-4.5714-4.4667-9.073-8.7473-11.458-4.2922-2.3962-10.446-1.896-13.26 2.117-0.663 0.95382-1.1167 2.0472-1.6983 3.0592-3.0825 5.3624-9.7127 7.8981-15.901 7.7353a3.0644 3.0644 0 0 1-1.7332-0.40712c-1.0004-0.68628-0.95383-2.1519-0.80261-3.3616 0.221-1.7099 0.43038-3.4082 0.65139-5.1181a4.099 4.099 0 0 1 1.1283-2.8033c1.1516-0.90729 2.8033-0.33732 4.2689-0.36059a5.3775 5.3775 0 0 0 4.8971-3.7804 6.0768 6.0768 0 0 0-1.6983-6.0486c-0.663-0.62813-1.5587-1.4191-1.2097-2.2682a1.885 1.885 0 0 1 1.3144-0.884c2.6172-0.75608 5.3972-0.95382 7.9679-1.8611 2.5823-0.89566 5.0832-2.7335 5.6997-5.3972 0.18611-0.81424 0.26753-1.803 1.0004-2.2101a3.2398 3.2398 0 0 1 1.1632-0.23264 5.6613 5.6613 0 0 0 4.8505-5.8974c1.233-0.86077 2.9662-0.221 4.1643 0.69792 1.1865 0.91893 2.245 2.1286 3.699 2.5241 2.7102 0.74445 5.3274-1.6634 8.1424-1.675 1.1865 0 2.4078 0.41876 3.5129 0.01164 1.1283-0.40712 1.803-1.5238 2.6637-2.3497 0.8724-0.8375 2.3846-1.3377 3.1872-0.442-0.23264-1.6866-0.45365-3.3616-0.68629-5.0367a9.9014 9.9014 0 0 0 8.061-1.4656c-2.9313-0.98872-5.8509-1.9774-8.7822-2.9662a1.8951 1.8951 0 0 1-0.82587-0.442c-0.63976-0.68629 0-1.7564 0.51181-2.5358 1.2446-1.8728 1.454-4.9552-0.59323-5.8858-1.3958-0.63976-2.9894 0.128-4.3271 0.8724-2.1403 1.1865-4.2806 2.3846-6.4209 3.571-0.19774 1.2214 1.2912 1.9193 2.2101 2.7335a3.7065 3.7065 0 0 1-2.4195 6.479 4.6433 4.6433 0 0 1 0.82588 3.92c-1.4307 0.10468-2.8731 0.20937-4.3155 0.31406a1.8532 1.8532 0 0 1-1.3958-0.27917c-0.46528-0.40712-0.39548-1.1283-0.5118-1.7332a3.7439 3.7439 0 0 0-3.1639-2.7568 10.922 10.922 0 0 0-4.4085 0.40712 2.6862 2.6862 0 0 1-1.9076-0.04653 1.903 1.903 0 0 1-0.74445-0.95382 4.8636 4.8636 0 0 1 0.97709-4.6761 26.767 26.767 0 0 1 3.6757-3.3849 21.428 21.428 0 0 0 6.386-9.8872c2.3729-1.0004 4.8273-2.3497 7.2118-3.35a28.809 28.809 0 0 1 5.9905-2.0123 28.309 28.309 0 0 1 5.8742-0.27917c2.6754 0.04653 5.3624 0.09306 8.0377 0.15122a19.344 19.344 0 0 1 7.0374 1.012c2.1984 0.9073 4.141 2.8731 4.2922 5.246a1.6108 1.6108 0 0 1-0.52344 1.4773 1.885 1.885 0 0 1-1.012 0.23264c-2.2217 0.06979-3.1639 0.62813-5.3856 0.70955 1.4075 1.5005 2.9894 3.0825 5.0366 3.35 3.6059 0.46528 6.1999-3.2686 7.8632-6.5139a3.1742 3.1742 0 0 0 3.3151 2.9429 6.685 6.685 0 0 0 2.5009-0.97709 49.195 49.195 0 0 1 23.322-6.0254 2.5113 2.5113 0 0 1 1.9193-2.7684c1.6634-0.32569 3.1523 1.105 3.9549 2.5939 0.791 1.4889 1.2912 3.2104 2.5707 4.3271 1.2679 1.1167 3.7222 1.0585 4.2224-0.5467 0.48855-1.5471-1.1283-2.8731-2.466-3.792-1.3493-0.9073-2.7568-2.5939-1.8495-3.9432 6.8396-1.5238 13.737-3.036 20.751-3.3384a8.8306 8.8306 0 0 0 3.4896-0.60486 2.7124 2.7124 0 0 0 1.6285-2.8731 7.9308 7.9308 0 0 1-8.2587-3.1174c7.2002-0.59323 14.738-1.1167 21.659 0.50018l6.0603 5.1413c-1.1516 1.1981-2.687 2.3264-1.8495 3.5245a2.5785 2.5785 0 0 0 2.1286 0.73281c1.4656 0.02327 2.9313 0.05816 4.3853 0.05816a170.53 170.53 0 0 1 52.065 109.06c-2.4427-0.093-4.6877 3.0011-4.3736 5.6997 0.37222 3.129 2.6288 5.6415 4.2457 8.3402a12.709 12.709 0 0 1 0.72114 1.3611z"/>
 </g>
 <line x2="888" y1="636.96" y2="636.96" fill="none" stroke="#3f3d56" stroke-miterlimit="10" stroke-width="2"/>
 <circle cx="485.19" cy="330.06" r="4.282" fill="#3f3d56" stroke-width=".25859"/>
 <path d="m485.44 242.07c-17.24 0-31.184 13.944-31.184 31.184 0 23.388 31.184 57.912 31.184 57.912s31.184-34.525 31.184-57.912c0-17.24-13.944-31.184-31.184-31.184zm0 42.321c-6.1476 0-11.137-4.9894-11.137-11.137 0-6.1476 4.9894-11.137 11.137-11.137s11.137 4.9894 11.137 11.137c0 6.1476-4.9894 11.137-11.137 11.137z" fill="#2f2e41" stroke-width="4.4548"/>
</svg>
