<?xml version="1.0" encoding="UTF-8"?>
<svg width="769" height="771.64" data-name="Layer 1" version="1.1" viewBox="0 0 769 771.64" xmlns="http://www.w3.org/2000/svg" xmlns:cc="http://creativecommons.org/ns#" xmlns:dc="http://purl.org/dc/elements/1.1/" xmlns:rdf="http://www.w3.org/1999/02/22-rdf-syntax-ns#">
 <metadata>
  <rdf:RDF>
   <cc:Work rdf:about="">
    <dc:format>image/svg+xml</dc:format>
    <dc:type rdf:resource="http://purl.org/dc/dcmitype/StillImage"/>
    <dc:title/>
   </cc:Work>
  </rdf:RDF>
 </metadata>
 <g>
  <ellipse cx="-562.49" rx="129.92" ry="0" fill="#151618" fill-rule="evenodd" stroke-width="0"/>
  <path transform="translate(-215.5 -64.182)" d="m790.35 312.99a57.401 57.401 0 0 1-20.162-3.6387 2.9999 2.9999 0 1 1 2.1055-5.6182 52.393 52.393 0 0 0 51.264-8.5308c-22.038 0.23438-43.595-10.181-54.319-26.893-6.8945-10.743-9.1484-23.385-6.5205-36.559a65.225 65.225 0 0 1 12.089-26.276 52.051 52.051 0 0 0-36.023 54.65 3 3 0 1 1-5.9707 0.59179 58.044 58.044 0 0 1 49.792-63.138 2.9996 2.9996 0 0 1 2.5508 5.0757c-15.344 15.585-24.655 40.929-10.868 62.415 10.878 16.949 34.283 26.644 56.929 23.58a2.9998 2.9998 0 0 1 2.6416 4.9688 58.387 58.387 0 0 1-43.507 19.372z" fill="#6a31a3"/>
  <path transform="translate(-215.5 -64.182)" d="m742.5 314.18a22 22 0 1 1 22-22 22.025 22.025 0 0 1-22 22zm0-38a16 16 0 1 0 16 16 16.018 16.018 0 0 0-16-16z" fill="#6a31a3"/>
 </g>
 <path transform="translate(-215.5 -64.182)" d="m224.19 631.26a10.276 10.276 0 0 1-8.2717-13.052l7.7883-26.48 11.835 2.219 0.50881 26.967a10.276 10.276 0 0 1-11.86 10.346z" fill="#9f616a"/>
 <g fill="#2f2e41">
  <polygon points="76.996 736.13 62.203 733.91 65.901 589.68 45.191 651.81 34.096 739.09 20.042 735.39 17.083 644.41 33.356 537.16 114.72 555.65"/>
  <path transform="translate(-215.5 -64.182)" d="m285.7 835.82a10.873 10.873 0 0 1-10.873-10.873q0-0.53314 0.05221-1.0644l2.2971-23.354a3.4279 3.4279 0 0 1 1.7836-2.6783c4.3607-2.352 8.8449-1.7816 13.435 1.2882a3.4071 3.4071 0 0 1 1.4805 2.4288l2.6219 22.099a10.873 10.873 0 0 1-10.797 12.154z"/>
  <path transform="translate(-215.5 -64.182)" d="m225.32 834.08a9.7937 9.7937 0 0 1-4.7546-14.662l15.78-23.457c5.6885-4.0823 9.1194-2.0938 10.453 5.534l3.1903-7.9936 2.4038 2.6224a7.6466 7.6466 0 0 1 0.40476 9.8543l-16.368 24.91a9.7938 9.7938 0 0 1-11.11 3.1916z"/>
 </g>
 <circle cx="109.54" cy="375.91" r="22.19" fill="#9f616a"/>
 <path transform="translate(-215.5 -64.182)" d="m339.09 480.78-37.723-7.3967c4.8589-10.364 8.7501-13.87 4.438-25.149h30.326c-2.6746 11.682-0.09 22.647 2.9586 32.545z" fill="#9f616a"/>
 <g fill="#e6e6e6">
  <path transform="translate(-215.5 -64.182)" d="m334.66 630.19-88.76-25.149c17.779-39.13 21.503-82.091 16.231-127.5a8.2173 8.2173 0 0 1 7.2072-9.1161q0.14965-0.0175 0.29988-0.0295c11.578-0.95362 23.649-2.1776 36.175-3.8872l14.054 9.6157 16.273-3.6983c5.2216 2.5308 10.481 4.6357 15.228 6.7343a19.038 19.038 0 0 1 10.35 23.414c-14.463 43.676-24.144 86.94-27.057 129.62z"/>
  <path transform="translate(-215.5 -64.182)" d="m237.76 596.91-17.012-2.219 40.302-116.12c2.05-5.9068 7.134-9.104 13.324-9.9883l5.9173 0.73966-4.438 68.789z"/>
  <path transform="translate(-215.5 -64.182)" d="m371.02 574.71a13.484 13.484 0 0 1-13.486-8.2716l-16.224-39.058 13.314-48.078 3.5195 2.2397q0.50863 0.3237 1.0041 0.66348a31.653 31.653 0 0 1 13.002 31.471l-3.4723 20.361 14.323 30.753a13.484 13.484 0 0 1-11.981 9.9192z"/>
 </g>
 <path transform="translate(-215.5 -64.182)" d="m326.75 407.21a23.564 23.564 0 0 1 10.766 3.1697c0.75452 0.4391 0.40576 2.0226 1.1031 2.5391 0.87822 0.65038 2.785 0.25543 3.5627 1.0172a23.615 23.615 0 0 1 7.0224 19.026l-1.2382 12.311-2.921-3.1945a30.448 30.448 0 0 0-20.306-9.9688q-0.49686-0.03377-0.99555-0.053l2.2472-3.9326-3.9056 3.9056a38.03 38.03 0 0 0-5.3209 0.43313l2.9885-5.2298-5.7341 5.7341-4.5e-4 2.4e-4a15.331 15.331 0 0 0-10.712 8.7372l-0.63671 1.4116-0.71328-11.745a23.674 23.674 0 0 1 23.154-24.183q0.82045-0.01783 1.6406 0.0212z" fill="#2f2e41"/>
 <g fill="#9f616a">
  <ellipse cx="131.88" cy="380.2" rx="1.7823" ry="4.2329"/>
  <ellipse cx="87.319" cy="378.87" rx="1.7823" ry="4.2329"/>
  <path transform="translate(-215.5 -64.182)" d="m389.53 499.6a10.276 10.276 0 0 1 7.134 13.707l-10.008 25.724-11.604-3.2156 1.782-26.913a10.276 10.276 0 0 1 12.695-9.3022z"/>
 </g>
 <polygon points="160.58 509.06 142.09 497.22 157.62 465.41 176.85 472.81 167.24 500.92" fill="#e6e6e6"/>
 <circle cx="172.52" cy="200.9" r="129.92" fill="#fff" fill-rule="evenodd"/>
 <path transform="translate(-215.5 -64.182)" d="m388.5 473.28v-125.1h-2v125.1a5 5 0 1 0 2 0zm-1 7.8989a3 3 0 1 1 3-3 3.0033 3.0033 0 0 1-3 3z" fill="#3f3d56"/>
 <g fill="#592989">
  <path transform="translate(-215.5 -64.182)" d="m385.93 228.75a4.3139 4.3139 0 0 1-4.3138-4.3138v-12.942a4.3138 4.3138 0 0 1 8.6277 0v12.942a4.3138 4.3138 0 0 1-4.3138 4.3138z"/>
  <path transform="translate(-215.5 -64.182)" d="m385.93 327.97a4.3138 4.3138 0 0 1-4.3138-4.3138v-12.942a4.3138 4.3138 0 1 1 8.6277 0v12.942a4.3137 4.3137 0 0 1-4.3138 4.3138z"/>
  <path transform="translate(-215.5 -64.182)" d="m416.44 241.39a4.3139 4.3139 0 0 1-3.0503-7.3642l9.1508-9.1507a4.3138 4.3138 0 0 1 6.1006 6.1008l-9.1508 9.1507a4.3008 4.3008 0 0 1-3.0503 1.2634z"/>
  <path transform="translate(-215.5 -64.182)" d="m346.28 311.54a4.3139 4.3139 0 0 1-3.0504-7.3641l9.1507-9.1508a4.3138 4.3138 0 0 1 6.1008 6.1006l-9.1507 9.1508a4.3009 4.3009 0 0 1-3.0504 1.2635z"/>
  <path transform="translate(-215.5 -64.182)" d="m442.01 271.89h-12.942a4.3138 4.3138 0 0 1 0-8.6277h12.942a4.3138 4.3138 0 1 1 0 8.6277z"/>
  <path transform="translate(-215.5 -64.182)" d="m342.8 271.89h-12.941a4.3138 4.3138 0 1 1 0-8.6277h12.942a4.3138 4.3138 0 0 1 0 8.6277z"/>
  <path transform="translate(-215.5 -64.182)" d="m425.59 311.54a4.3004 4.3004 0 0 1-3.0503-1.2636l-9.1508-9.1508a4.3138 4.3138 0 1 1 6.1006-6.1006l9.1508 9.1508a4.3138 4.3138 0 0 1-3.0503 7.3641z"/>
  <path transform="translate(-215.5 -64.182)" d="m355.43 241.39a4.2998 4.2998 0 0 1-3.0503-1.2636l-9.1508-9.1506a4.3139 4.3139 0 0 1 6.1008-6.1008l9.1506 9.1508a4.3138 4.3138 0 0 1-3.0503 7.3641z"/>
  <path transform="translate(-215.5 -64.182)" d="m385.93 293.46a25.883 25.883 0 1 1 25.883-25.883 25.912 25.912 0 0 1-25.883 25.883zm0-43.138a17.255 17.255 0 1 0 17.255 17.255 17.275 17.275 0 0 0-17.255-17.255z"/>
 </g>
</svg>
